<svg xmlns="http://www.w3.org/2000/svg" xmlns:xlink="http://www.w3.org/1999/xlink" width="500" zoomAndPan="magnify" viewBox="0 0 375 374.999991" height="500" preserveAspectRatio="xMidYMid meet" version="1.0"><path fill="#ffffff" d="M 300.816406 194.996094 C 300.816406 188.449219 300.816406 181.972656 300.816406 175.421875 C 300.816406 171.003906 301.183594 166.222656 299.855469 161.957031 C 292.5 139.511719 260.558594 146.058594 259.675781 168.503906 C 259.675781 178.4375 259.675781 188.371094 259.675781 198.308594 C 259.675781 199.1875 259.675781 200 259.675781 200.882812 C 259.675781 201.027344 259.675781 201.105469 259.675781 201.25 C 259.675781 201.398438 259.675781 201.472656 259.675781 201.617188 C 259.675781 203.238281 259.675781 204.855469 259.605469 206.402344 C 259.605469 208.386719 259.605469 210.519531 259.753906 212.511719 C 260.78125 222.957031 269.757812 231.273438 280.28125 231.273438 C 291.984375 230.757812 300.371094 222.074219 300.886719 210.449219 C 300.960938 205.371094 300.816406 200.148438 300.816406 194.996094 Z M 252.539062 210.886719 C 252.320312 206.695312 252.539062 202.355469 252.539062 198.308594 C 252.539062 190.066406 252.539062 181.75 252.539062 173.507812 C 252.539062 171.742188 252.539062 169.976562 252.6875 168.28125 C 252.613281 163.277344 252.539062 158.277344 252.539062 153.34375 C 252.539062 149.296875 252.613281 145.398438 251.070312 141.570312 C 247.535156 132.667969 238.117188 127.371094 228.699219 128.84375 C 218.542969 130.460938 211.773438 139.070312 211.332031 149.078125 C 211.183594 152.460938 211.257812 155.917969 211.332031 159.304688 C 224.429688 163.574219 234.878906 174.390625 230.683594 189.035156 C 227.519531 199.925781 220.085938 205.664062 211.039062 209.492188 C 211.183594 209.859375 211.257812 210.300781 211.332031 210.816406 C 211.699219 221.925781 220.453125 231.492188 231.9375 231.421875 C 243.417969 231.347656 251.949219 222 252.539062 210.886719 Z M 307.804688 177.703125 C 307.804688 186.164062 307.804688 194.554688 307.804688 203.089844 C 307.804688 209.417969 308.097656 215.523438 305.597656 221.488281 C 301.253906 231.789062 291.25 237.96875 280.136719 238.335938 C 270.054688 238.335938 260.710938 232.597656 255.925781 223.914062 C 253.9375 228.035156 250.773438 231.640625 245.84375 234.585938 C 227.667969 245.257812 205.957031 231.9375 204.414062 211.921875 C 203.238281 212.289062 201.988281 212.726562 200.808594 213.023438 C 183.882812 218.101562 171.960938 227.886719 163.277344 242.605469 C 196.980469 251.363281 221.558594 280.871094 224.132812 315.75 C 224.429688 320.238281 217.441406 320.164062 217.144531 315.75 C 214.644531 282.34375 189.699219 254.894531 157.023438 248.347656 C 154.667969 247.832031 153.933594 245.035156 154.890625 243.195312 C 162.617188 228.257812 173.726562 216.039062 189.476562 209.636719 C 203.089844 203.972656 225.753906 201.617188 224.722656 181.601562 C 223.988281 166.371094 202.792969 163.429688 191.316406 164.75 C 177.847656 166.296875 164.75 171.742188 152.828125 177.925781 C 144 182.410156 135.683594 187.785156 127.441406 193.082031 C 124.351562 194.996094 121.332031 197.054688 118.242188 199.042969 C 117.730469 199.925781 116.773438 200.515625 115.816406 200.660156 C 106.175781 207.285156 97.050781 214.789062 91.089844 224.652344 C 82.996094 237.96875 83.363281 253.421875 89.175781 267.480469 C 96.535156 285.433594 109.121094 302.433594 120.964844 317.589844 C 126.046875 324.140625 131.5625 330.394531 137.300781 336.355469 C 139.878906 339.078125 142.597656 341.65625 145.394531 344.300781 C 146.941406 345.773438 149.296875 347.246094 150.03125 349.230469 C 151.0625 352.324219 150.179688 357.179688 150.179688 360.269531 C 150.179688 363.65625 150.179688 367.042969 150.179688 370.355469 C 150.179688 374.839844 143.1875 374.839844 143.1875 370.355469 C 143.1875 365.421875 143.1875 360.492188 143.1875 355.5625 C 143.1875 354.382812 143.410156 352.765625 143.1875 351.515625 C 142.820312 349.382812 142.96875 351.441406 143.042969 351.515625 C 140.246094 348.351562 136.863281 345.703125 133.917969 342.683594 C 118.023438 326.570312 104.628906 307.953125 92.710938 288.746094 C 83.878906 274.542969 76.222656 258.574219 78.140625 241.425781 C 79.832031 226.34375 88.441406 214.054688 99.773438 204.265625 C 103.378906 201.105469 107.207031 198.230469 111.179688 195.363281 C 107.5 181.972656 103.671875 168.578125 99.921875 155.183594 C 90.207031 120.304688 81.816406 84.761719 70.78125 50.398438 C 66.585938 37.371094 68.425781 23.316406 79.902344 14.484375 C 91.460938 5.507812 108.164062 8.007812 117.949219 18.53125 C 124.351562 25.378906 126.046875 34.574219 128.546875 43.332031 C 131.855469 54.957031 135.242188 66.511719 138.554688 78.136719 C 145.25 101.320312 151.945312 124.574219 158.570312 147.753906 C 159.890625 152.09375 153.050781 153.933594 151.796875 149.59375 C 144.808594 125.457031 137.890625 101.320312 130.898438 77.257812 C 127.589844 65.628906 124.207031 54.078125 120.894531 42.449219 C 117.949219 31.925781 115.152344 21.625 104.039062 17.355469 C 85.496094 10.144531 71.371094 29.644531 76.8125 46.496094 C 77.769531 49.585938 78.726562 52.53125 79.535156 55.621094 C 84.171875 72.03125 88.664062 88.367188 93.296875 104.777344 C 101.320312 133.476562 109.265625 162.175781 117.285156 190.875 C 123.984375 186.386719 130.898438 182.117188 137.820312 177.925781 C 148.046875 171.742188 158.789062 166.371094 170.121094 162.324219 C 180.863281 158.496094 193.15625 155.625 204.707031 157.246094 C 204.5625 150.695312 204.414062 143.925781 206.992188 137.890625 C 211.257812 127.808594 221.414062 121.039062 232.449219 121.039062 C 249.304688 121.039062 258.941406 134.507812 259.972656 149.738281 C 273.21875 134.800781 298.976562 138.777344 306.40625 158.054688 C 308.320312 164.601562 307.804688 171.226562 307.804688 177.703125 Z M 168.0625 118.390625 C 173.289062 99.109375 178.585938 79.832031 183.808594 60.476562 C 186.605469 49.953125 189.546875 39.429688 192.34375 28.910156 C 196.246094 14.558594 213.90625 6.832031 226.125 17.796875 C 238.265625 28.613281 230.90625 43.996094 227.300781 57.089844 C 223.105469 72.765625 218.835938 88.441406 214.644531 104.117188 C 213.464844 108.457031 220.238281 110.296875 221.414062 105.957031 C 225.605469 90.28125 229.875 74.605469 234.070312 58.929688 C 237.308594 47.011719 243.265625 34.5 237.898438 22.359375 C 229.507812 3.226562 203.382812 -0.0117188 190.503906 16.324219 C 184.910156 23.242188 183.808594 33.542969 181.527344 41.933594 C 177.480469 56.796875 173.433594 71.664062 169.386719 86.527344 C 166.664062 96.535156 163.941406 106.542969 161.21875 116.550781 C 160.042969 120.894531 166.882812 122.804688 168.0625 118.390625 Z M 305.082031 249.742188 C 306.40625 279.324219 296.101562 308.542969 276.53125 330.765625 C 275.792969 331.570312 273.070312 335.105469 272.628906 334.589844 C 272.628906 335.25 272.703125 335.988281 272.703125 336.429688 C 272.703125 340.699219 272.703125 344.890625 272.703125 349.160156 C 272.703125 356.296875 272.703125 363.363281 272.703125 370.5 C 272.703125 374.988281 265.710938 374.988281 265.710938 370.5 C 265.710938 363.363281 265.710938 356.296875 265.710938 349.160156 C 265.710938 344.082031 263.945312 335.398438 266.742188 330.910156 C 269.90625 325.835938 275.277344 321.566406 278.886719 316.636719 C 283.816406 309.644531 287.863281 302.066406 291.027344 294.117188 C 296.546875 279.988281 298.824219 264.902344 298.238281 249.816406 C 297.871094 245.179688 304.933594 245.179688 305.082031 249.742188 " fill-opacity="1" fill-rule="nonzero"/></svg>