<svg xmlns="http://www.w3.org/2000/svg" xmlns:xlink="http://www.w3.org/1999/xlink" width="500" zoomAndPan="magnify" viewBox="0 0 375 149.999998" height="200" preserveAspectRatio="xMidYMid meet" version="1.0"><defs><g/></defs><g fill="#ffffff" fill-opacity="1"><g transform="translate(95.149403, 115.605336)"><g><path d="M 2.078125 -0.1875 L 2.046875 -2.34375 C 2.453125 -2.550781 3.351562 -2.847656 4.75 -3.234375 C 6.144531 -3.628906 6.921875 -3.914062 7.078125 -4.09375 C 7.359375 -4.363281 7.5 -4.753906 7.5 -5.265625 L 7.5 -6.09375 C 7.59375 -8.4375 7.640625 -9.75 7.640625 -10.03125 C 7.640625 -10.257812 7.628906 -10.570312 7.609375 -10.96875 L 7.5625 -11.421875 L 7.609375 -11.921875 L 7.609375 -12.265625 L 7.375 -18.765625 L 7.34375 -26.03125 L 7.265625 -26.75 C 6.804688 -26.75 6.140625 -26.773438 5.265625 -26.828125 L 2.875 -26.828125 C 2.726562 -26.859375 2.515625 -26.910156 2.234375 -26.984375 C 2.203125 -27.660156 2.1875 -28.203125 2.1875 -28.609375 C 2.1875 -29.316406 2.363281 -29.882812 2.71875 -30.3125 C 3.476562 -30.3125 4.96875 -30.398438 7.1875 -30.578125 C 7.257812 -33.578125 7.742188 -36.394531 8.640625 -39.03125 C 9.535156 -41.664062 10.664062 -43.78125 12.03125 -45.375 L 13.015625 -46.46875 C 14.679688 -47.882812 16.210938 -48.875 17.609375 -49.4375 C 19.015625 -50.007812 20.675781 -50.296875 22.59375 -50.296875 C 24.457031 -50.296875 26 -49.988281 27.21875 -49.375 C 28.445312 -48.769531 29.296875 -47.992188 29.765625 -47.046875 C 30.234375 -46.109375 30.46875 -45.234375 30.46875 -44.421875 C 30.46875 -43.410156 30.050781 -42.484375 29.21875 -41.640625 C 28.382812 -40.796875 27.460938 -40.375 26.453125 -40.375 C 25.691406 -40.375 24.945312 -40.628906 24.21875 -41.140625 C 23.71875 -41.515625 23.109375 -42.300781 22.390625 -43.5 C 21.671875 -44.695312 21.109375 -45.457031 20.703125 -45.78125 C 20.296875 -46.09375 19.765625 -46.25 19.109375 -46.25 C 18.328125 -46.25 17.644531 -45.941406 17.0625 -45.328125 C 16.488281 -44.722656 16.085938 -43.851562 15.859375 -42.71875 C 15.628906 -41.582031 15.515625 -39.3125 15.515625 -35.90625 L 15.484375 -31.75 L 15.515625 -30.65625 L 16.234375 -30.609375 L 20.734375 -30.734375 C 20.960938 -30.734375 21.316406 -30.691406 21.796875 -30.609375 C 22.117188 -30.304688 22.28125 -30.054688 22.28125 -29.859375 L 22.25 -29.140625 L 22.25 -28.109375 C 22.25 -27.960938 22.210938 -27.675781 22.140625 -27.25 C 21.910156 -27.125 21.644531 -27.0625 21.34375 -27.0625 L 21 -27.0625 L 18.125 -27.015625 C 17.644531 -27.015625 17.28125 -27.03125 17.03125 -27.0625 L 16.6875 -27.0625 C 16.4375 -27.0625 16.054688 -27.007812 15.546875 -26.90625 L 15.515625 -25.046875 C 15.515625 -24.867188 15.523438 -24.59375 15.546875 -24.21875 C 15.597656 -22.78125 15.625 -21.796875 15.625 -21.265625 L 15.59375 -15.703125 L 15.671875 -11.65625 L 15.625 -8.40625 C 15.550781 -6.101562 15.765625 -4.710938 16.265625 -4.234375 C 17.003906 -3.503906 18.53125 -3.015625 20.84375 -2.765625 C 21.28125 -2.734375 21.675781 -2.644531 22.03125 -2.5 C 22.125 -1.894531 22.171875 -1.503906 22.171875 -1.328125 C 22.171875 -1.046875 22.125 -0.65625 22.03125 -0.15625 L 19.296875 -0.15625 C 19.066406 -0.15625 17.59375 -0.242188 14.875 -0.421875 L 12.828125 -0.5625 C 10.859375 -0.5625 9.332031 -0.515625 8.25 -0.421875 C 7.664062 -0.335938 5.609375 -0.257812 2.078125 -0.1875 Z M 2.078125 -0.1875 "/></g></g></g><g fill="#ffffff" fill-opacity="1"><g transform="translate(122.447913, 115.605336)"><g><path d="M 3.25 -20.28125 C 3.90625 -22.425781 4.488281 -23.851562 5 -24.5625 C 6.40625 -26.625 7.910156 -28.234375 9.515625 -29.390625 C 11.117188 -30.554688 12.5625 -31.332031 13.84375 -31.71875 C 15.507812 -32.195312 16.863281 -32.4375 17.90625 -32.4375 C 20.269531 -32.4375 22.179688 -32.25 23.640625 -31.875 C 25.109375 -31.507812 26.335938 -30.988281 27.328125 -30.3125 C 28.734375 -29.320312 29.863281 -28.320312 30.71875 -27.3125 C 31.582031 -26.3125 32.285156 -25.128906 32.828125 -23.765625 C 33.367188 -22.398438 33.664062 -20.75 33.71875 -18.8125 L 29.515625 -18.890625 C 28.359375 -18.890625 25.8125 -19 21.875 -19.21875 C 20.40625 -19.320312 19.394531 -19.375 18.84375 -19.375 C 18.664062 -19.375 17.304688 -19.363281 14.765625 -19.34375 L 11.5 -19.34375 C 11.445312 -18.988281 11.421875 -18.679688 11.421875 -18.421875 C 11.421875 -17.085938 11.582031 -15.679688 11.90625 -14.203125 C 12.238281 -12.734375 12.734375 -11.4375 13.390625 -10.3125 C 14.046875 -9.1875 14.859375 -8.21875 15.828125 -7.40625 C 16.804688 -6.601562 17.8125 -6.023438 18.84375 -5.671875 L 21.046875 -4.953125 C 22.984375 -4.953125 24.28125 -5.015625 24.9375 -5.140625 C 26.144531 -5.398438 27.207031 -5.722656 28.125 -6.109375 C 29.050781 -6.503906 30.171875 -7.164062 31.484375 -8.09375 C 32.390625 -7.4375 33.144531 -6.84375 33.75 -6.3125 C 31.53125 -3.875 29.226562 -2.101562 26.84375 -1 C 24.457031 0.09375 21.789062 0.640625 18.84375 0.640625 C 16.851562 0.640625 15.226562 0.460938 13.96875 0.109375 C 12.269531 -0.335938 10.738281 -1.03125 9.375 -1.96875 C 8.019531 -2.90625 6.847656 -4.066406 5.859375 -5.453125 C 4.878906 -6.835938 4.148438 -8.257812 3.671875 -9.71875 C 3.035156 -11.632812 2.71875 -13.175781 2.71875 -14.34375 C 2.71875 -16.539062 2.894531 -18.519531 3.25 -20.28125 Z M 25.234375 -21.90625 C 25.210938 -23.320312 24.9375 -24.671875 24.40625 -25.953125 C 23.875 -27.242188 23.050781 -28.25 21.9375 -28.96875 C 20.832031 -29.6875 19.710938 -30.046875 18.578125 -30.046875 C 16.890625 -30.046875 15.363281 -29.300781 14 -27.8125 C 12.632812 -26.320312 11.863281 -24.304688 11.6875 -21.765625 L 20.328125 -21.71875 C 20.878906 -21.71875 21.660156 -21.753906 22.671875 -21.828125 C 23.398438 -21.910156 23.914062 -21.953125 24.21875 -21.953125 C 24.445312 -21.953125 24.785156 -21.9375 25.234375 -21.90625 Z M 25.234375 -21.90625 "/></g></g></g><g fill="#ffffff" fill-opacity="1"><g transform="translate(162.650156, 115.605336)"><g><path d="M 9.984375 -29.25 C 11.222656 -30.101562 12.414062 -30.71875 13.5625 -31.09375 C 14.707031 -31.476562 16.328125 -31.769531 18.421875 -31.96875 L 20.546875 -31.96875 C 23.296875 -31.96875 25.929688 -31.023438 28.453125 -29.140625 L 28.53125 -30.046875 L 28.5 -32.578125 L 28.640625 -36.625 C 28.640625 -40.894531 28.3125 -43.597656 27.65625 -44.734375 C 27.28125 -45.410156 26.617188 -45.773438 25.671875 -45.828125 C 24.722656 -45.878906 23.960938 -46.039062 23.390625 -46.3125 L 23.390625 -48.140625 C 23.867188 -48.285156 24.484375 -48.363281 25.234375 -48.375 C 25.992188 -48.394531 27.472656 -48.65625 29.671875 -49.15625 L 30.953125 -49.421875 L 34.703125 -50.296875 C 35.460938 -50.472656 35.925781 -50.5625 36.09375 -50.5625 C 36.226562 -50.5625 36.429688 -50.535156 36.703125 -50.484375 C 36.859375 -49.953125 36.9375 -49.5625 36.9375 -49.3125 L 36.890625 -48.734375 L 36.890625 -48.0625 C 36.890625 -47.351562 36.929688 -45.472656 37.015625 -42.421875 L 37.015625 -40.375 L 37.046875 -39.28125 L 37.015625 -37.390625 L 37.125 -33.453125 L 37.046875 -31.140625 C 36.992188 -30.128906 36.96875 -28.539062 36.96875 -26.375 C 36.96875 -26.019531 36.984375 -25.707031 37.015625 -25.4375 L 37.015625 -24.03125 C 36.984375 -23.625 36.96875 -23.320312 36.96875 -23.125 C 36.96875 -22.738281 37.003906 -22.195312 37.078125 -21.5 L 37.078125 -19.40625 L 37.046875 -18.625 C 36.992188 -17.882812 36.96875 -16.875 36.96875 -15.59375 C 36.96875 -14.28125 36.992188 -13.09375 37.046875 -12.03125 C 37.066406 -11.601562 37.078125 -11.210938 37.078125 -10.859375 L 37.078125 -8.015625 C 37.078125 -7.109375 37.101562 -6.023438 37.15625 -4.765625 C 37.613281 -4.492188 38.722656 -4.289062 40.484375 -4.15625 C 41.046875 -4.132812 41.539062 -4.070312 41.96875 -3.96875 C 42.09375 -3.59375 42.15625 -3.316406 42.15625 -3.140625 C 42.15625 -2.910156 42.066406 -2.570312 41.890625 -2.125 C 40.859375 -1.863281 39.773438 -1.671875 38.640625 -1.546875 C 35.179688 -1.117188 32.71875 -0.515625 31.25 0.265625 C 30.550781 0.671875 30.0625 0.875 29.78125 0.875 C 29.5 0.875 29.179688 0.847656 28.828125 0.796875 C 28.859375 0.335938 28.875 0.046875 28.875 -0.078125 C 28.875 -1.796875 28.835938 -2.894531 28.765625 -3.375 C 28.378906 -3.164062 27.910156 -2.898438 27.359375 -2.578125 C 25.671875 -1.566406 24.128906 -0.863281 22.734375 -0.46875 C 21.347656 -0.0820312 19.757812 0.109375 17.96875 0.109375 C 14.789062 0.109375 12.257812 -0.492188 10.375 -1.703125 C 7.570312 -3.472656 5.632812 -5.59375 4.5625 -8.0625 C 3.488281 -10.53125 2.953125 -13.242188 2.953125 -16.203125 C 2.953125 -21.296875 5.296875 -25.644531 9.984375 -29.25 Z M 21.640625 -4.203125 C 22.171875 -4.148438 22.628906 -4.125 23.015625 -4.125 C 23.835938 -4.125 24.722656 -4.300781 25.671875 -4.65625 C 26.617188 -5.007812 27.625 -5.523438 28.6875 -6.203125 C 28.707031 -7.035156 28.71875 -7.550781 28.71875 -7.75 C 28.71875 -15.75 28.601562 -20.570312 28.375 -22.21875 C 28.070312 -24.40625 27.238281 -26.09375 25.875 -27.28125 C 24.519531 -28.46875 22.867188 -29.0625 20.921875 -29.0625 C 19.816406 -29.0625 18.765625 -28.859375 17.765625 -28.453125 C 16.765625 -28.054688 15.953125 -27.476562 15.328125 -26.71875 C 14.390625 -25.601562 13.679688 -24.34375 13.203125 -22.9375 C 12.546875 -20.96875 12.21875 -19.125 12.21875 -17.40625 C 12.21875 -13.289062 13.085938 -10.140625 14.828125 -7.953125 C 16.566406 -5.773438 18.835938 -4.523438 21.640625 -4.203125 Z M 21.640625 -4.203125 "/></g></g></g><g fill="#ffffff" fill-opacity="1"><g transform="translate(209.323187, 115.605336)"><g><path d="M 3.25 -20.28125 C 3.90625 -22.425781 4.488281 -23.851562 5 -24.5625 C 6.40625 -26.625 7.910156 -28.234375 9.515625 -29.390625 C 11.117188 -30.554688 12.5625 -31.332031 13.84375 -31.71875 C 15.507812 -32.195312 16.863281 -32.4375 17.90625 -32.4375 C 20.269531 -32.4375 22.179688 -32.25 23.640625 -31.875 C 25.109375 -31.507812 26.335938 -30.988281 27.328125 -30.3125 C 28.734375 -29.320312 29.863281 -28.320312 30.71875 -27.3125 C 31.582031 -26.3125 32.285156 -25.128906 32.828125 -23.765625 C 33.367188 -22.398438 33.664062 -20.75 33.71875 -18.8125 L 29.515625 -18.890625 C 28.359375 -18.890625 25.8125 -19 21.875 -19.21875 C 20.40625 -19.320312 19.394531 -19.375 18.84375 -19.375 C 18.664062 -19.375 17.304688 -19.363281 14.765625 -19.34375 L 11.5 -19.34375 C 11.445312 -18.988281 11.421875 -18.679688 11.421875 -18.421875 C 11.421875 -17.085938 11.582031 -15.679688 11.90625 -14.203125 C 12.238281 -12.734375 12.734375 -11.4375 13.390625 -10.3125 C 14.046875 -9.1875 14.859375 -8.21875 15.828125 -7.40625 C 16.804688 -6.601562 17.8125 -6.023438 18.84375 -5.671875 L 21.046875 -4.953125 C 22.984375 -4.953125 24.28125 -5.015625 24.9375 -5.140625 C 26.144531 -5.398438 27.207031 -5.722656 28.125 -6.109375 C 29.050781 -6.503906 30.171875 -7.164062 31.484375 -8.09375 C 32.390625 -7.4375 33.144531 -6.84375 33.75 -6.3125 C 31.53125 -3.875 29.226562 -2.101562 26.84375 -1 C 24.457031 0.09375 21.789062 0.640625 18.84375 0.640625 C 16.851562 0.640625 15.226562 0.460938 13.96875 0.109375 C 12.269531 -0.335938 10.738281 -1.03125 9.375 -1.96875 C 8.019531 -2.90625 6.847656 -4.066406 5.859375 -5.453125 C 4.878906 -6.835938 4.148438 -8.257812 3.671875 -9.71875 C 3.035156 -11.632812 2.71875 -13.175781 2.71875 -14.34375 C 2.71875 -16.539062 2.894531 -18.519531 3.25 -20.28125 Z M 25.234375 -21.90625 C 25.210938 -23.320312 24.9375 -24.671875 24.40625 -25.953125 C 23.875 -27.242188 23.050781 -28.25 21.9375 -28.96875 C 20.832031 -29.6875 19.710938 -30.046875 18.578125 -30.046875 C 16.890625 -30.046875 15.363281 -29.300781 14 -27.8125 C 12.632812 -26.320312 11.863281 -24.304688 11.6875 -21.765625 L 20.328125 -21.71875 C 20.878906 -21.71875 21.660156 -21.753906 22.671875 -21.828125 C 23.398438 -21.910156 23.914062 -21.953125 24.21875 -21.953125 C 24.445312 -21.953125 24.785156 -21.9375 25.234375 -21.90625 Z M 25.234375 -21.90625 "/></g></g></g><g fill="#ffffff" fill-opacity="1"><g transform="translate(249.525427, 115.605336)"><g><path d="M 1.46875 -2.078125 C 1.800781 -2.359375 2.234375 -2.5625 2.765625 -2.6875 C 4.046875 -2.96875 5.269531 -3.472656 6.4375 -4.203125 C 6.664062 -4.804688 6.78125 -6.847656 6.78125 -10.328125 C 6.78125 -16.710938 6.640625 -21.023438 6.359375 -23.265625 C 6.304688 -23.671875 6.101562 -24.023438 5.75 -24.328125 C 5.125 -24.660156 4.265625 -24.953125 3.171875 -25.203125 C 2.671875 -25.328125 2.367188 -25.601562 2.265625 -26.03125 L 2.15625 -27.4375 C 4.019531 -27.6875 5.707031 -28.320312 7.21875 -29.34375 C 8.738281 -30.363281 9.878906 -31.40625 10.640625 -32.46875 C 11.035156 -33.050781 11.382812 -33.492188 11.6875 -33.796875 L 14.34375 -33.90625 C 14.46875 -33.320312 14.53125 -32.84375 14.53125 -32.46875 C 14.53125 -32.1875 14.519531 -31.847656 14.5 -31.453125 C 14.46875 -30.566406 14.453125 -29.832031 14.453125 -29.25 C 14.453125 -28.96875 14.46875 -27.921875 14.5 -26.109375 C 15.53125 -27.878906 16.285156 -29.066406 16.765625 -29.671875 C 16.992188 -29.941406 17.660156 -30.554688 18.765625 -31.515625 C 19.628906 -32.148438 20.601562 -32.46875 21.6875 -32.46875 C 23.019531 -32.46875 24.175781 -32.015625 25.15625 -31.109375 C 26.144531 -30.203125 26.640625 -29.15625 26.640625 -27.96875 C 26.640625 -26.78125 26.265625 -25.710938 25.515625 -24.765625 C 24.773438 -23.816406 23.785156 -23.34375 22.546875 -23.34375 C 21.460938 -23.34375 20.328125 -23.796875 19.140625 -24.703125 C 18.441406 -25.265625 17.875 -25.546875 17.4375 -25.546875 L 17.1875 -25.5 C 16.65625 -25.320312 16.175781 -24.84375 15.75 -24.0625 C 15.039062 -22.800781 14.6875 -21.488281 14.6875 -20.125 L 14.765625 -19.109375 C 14.859375 -17.242188 14.929688 -12.867188 14.984375 -5.984375 C 15.054688 -5.347656 15.296875 -4.71875 15.703125 -4.09375 C 16.160156 -3.738281 16.617188 -3.484375 17.078125 -3.328125 C 17.546875 -3.179688 18.359375 -3.054688 19.515625 -2.953125 C 20.679688 -2.847656 21.390625 -2.6875 21.640625 -2.46875 C 21.898438 -2.257812 22.03125 -1.914062 22.03125 -1.4375 C 22.03125 -1.15625 21.953125 -0.789062 21.796875 -0.34375 L 18.234375 -0.34375 L 11.015625 -0.71875 C 9.191406 -0.71875 7.539062 -0.640625 6.0625 -0.484375 L 5.40625 -0.484375 C 5.226562 -0.484375 3.914062 -0.421875 1.46875 -0.296875 C 1.394531 -0.703125 1.359375 -1.007812 1.359375 -1.21875 C 1.359375 -1.414062 1.394531 -1.703125 1.46875 -2.078125 Z M 1.46875 -2.078125 "/></g></g></g><g fill="#ffffff" fill-opacity="1"><g transform="translate(280.040408, 115.605336)"><g><path d="M -0.421875 -30.953125 L 0.265625 -31 L 0.828125 -31 C 1.035156 -31 1.914062 -30.921875 3.46875 -30.765625 C 5.019531 -30.609375 6.445312 -30.53125 7.75 -30.53125 C 8.757812 -30.53125 10.171875 -30.609375 11.984375 -30.765625 C 13.804688 -30.921875 14.921875 -31 15.328125 -31 C 15.648438 -31 16.113281 -30.984375 16.71875 -30.953125 C 16.769531 -30.472656 16.796875 -30.082031 16.796875 -29.78125 C 16.796875 -29.53125 16.75 -29.238281 16.65625 -28.90625 C 16.269531 -28.78125 15.828125 -28.679688 15.328125 -28.609375 C 14.210938 -28.410156 13.441406 -28.179688 13.015625 -27.921875 C 12.890625 -27.847656 12.789062 -27.671875 12.71875 -27.390625 C 12.914062 -26.640625 13.128906 -25.972656 13.359375 -25.390625 L 17.0625 -16.921875 C 18.28125 -14.117188 19.34375 -11.9375 20.25 -10.375 C 20.75 -9.238281 21.085938 -8.476562 21.265625 -8.09375 C 23.640625 -12.28125 25.429688 -16.253906 26.640625 -20.015625 L 24.9375 -23.609375 C 24.226562 -25.171875 23.5 -26.597656 22.75 -27.890625 C 22.289062 -28.015625 21.796875 -28.140625 21.265625 -28.265625 C 20.328125 -28.492188 19.46875 -28.734375 18.6875 -28.984375 L 18.6875 -31.0625 C 20.5625 -31.039062 21.835938 -30.992188 22.515625 -30.921875 C 23.648438 -30.816406 25.34375 -30.765625 27.59375 -30.765625 C 28.695312 -30.765625 30.054688 -30.796875 31.671875 -30.859375 C 33.285156 -30.921875 34.269531 -30.953125 34.625 -30.953125 L 36.484375 -30.953125 L 36.359375 -28.796875 C 36.085938 -28.773438 35.457031 -28.710938 34.46875 -28.609375 C 33.488281 -28.503906 32.617188 -28.335938 31.859375 -28.109375 C 33.117188 -24.984375 33.953125 -23.054688 34.359375 -22.328125 L 34.8125 -21.5 L 38.859375 -12.640625 L 40.265625 -9.609375 L 41.734375 -12.859375 C 42.953125 -15.515625 43.671875 -17.128906 43.890625 -17.703125 C 44.628906 -19.597656 45.0625 -20.6875 45.1875 -20.96875 C 46.375 -23.457031 46.96875 -25.3125 46.96875 -26.53125 C 46.96875 -26.851562 46.703125 -27.191406 46.171875 -27.546875 C 46.015625 -27.648438 45.078125 -27.96875 43.359375 -28.5 C 42.148438 -28.644531 41.332031 -28.796875 40.90625 -28.953125 L 41.09375 -30.921875 C 41.46875 -30.972656 41.785156 -31 42.046875 -31 C 42.242188 -31 43.382812 -30.914062 45.46875 -30.75 C 47.550781 -30.582031 48.769531 -30.5 49.125 -30.5 C 50.082031 -30.5 51.546875 -30.597656 53.515625 -30.796875 C 54.367188 -30.878906 55.070312 -30.921875 55.625 -30.921875 L 55.625 -29.8125 C 55.625 -29.613281 55.613281 -29.222656 55.59375 -28.640625 C 53.113281 -27.910156 51.5625 -27.320312 50.9375 -26.875 C 50.78125 -26.769531 50.613281 -26.53125 50.4375 -26.15625 L 44.6875 -13.125 C 43.707031 -11.0625 42.046875 -7.128906 39.703125 -1.328125 C 39.367188 -0.546875 39.113281 0.0546875 38.9375 0.484375 L 36.09375 0.484375 L 29.625 -13.921875 L 28.953125 -15.40625 C 28.742188 -15.851562 28.503906 -16.316406 28.234375 -16.796875 L 27.890625 -16.203125 L 23.34375 -6.8125 C 22.664062 -5.34375 22.03125 -4.066406 21.4375 -2.984375 C 20.84375 -1.898438 20.316406 -0.78125 19.859375 0.375 L 18.546875 0.421875 L 16.5 0.375 L 10.59375 -12.1875 L 4.203125 -25.953125 C 3.796875 -26.691406 3.414062 -27.195312 3.0625 -27.46875 C 2.457031 -27.925781 1.769531 -28.222656 1 -28.359375 C 0.226562 -28.503906 -0.253906 -28.660156 -0.453125 -28.828125 C -0.472656 -29.304688 -0.484375 -29.675781 -0.484375 -29.9375 C -0.484375 -30.289062 -0.460938 -30.628906 -0.421875 -30.953125 Z M -0.421875 -30.953125 "/></g></g></g><g fill="#ffffff" fill-opacity="1"><g transform="translate(338.822507, 115.605336)"><g><path d="M 6.515625 -45.375 C 6.515625 -46.738281 6.953125 -47.851562 7.828125 -48.71875 C 8.710938 -49.59375 9.847656 -50.03125 11.234375 -50.03125 C 12.722656 -50.03125 13.957031 -49.566406 14.9375 -48.640625 C 15.925781 -47.722656 16.421875 -46.6875 16.421875 -45.53125 C 16.421875 -44.664062 16.222656 -43.800781 15.828125 -42.9375 C 15.441406 -42.082031 14.828125 -41.394531 13.984375 -40.875 C 13.140625 -40.363281 12.273438 -40.109375 11.390625 -40.109375 C 10.179688 -40.109375 9.066406 -40.625 8.046875 -41.65625 C 7.023438 -42.695312 6.515625 -43.9375 6.515625 -45.375 Z M 1.21875 -0.234375 L 1.140625 -2.6875 L 5.40625 -3.25 C 6.039062 -3.425781 6.476562 -3.6875 6.71875 -4.03125 C 6.957031 -4.375 7.078125 -5.132812 7.078125 -6.3125 L 7.078125 -6.734375 C 7.078125 -7.035156 7.09375 -7.582031 7.125 -8.375 C 7.164062 -9.175781 7.1875 -9.878906 7.1875 -10.484375 C 7.1875 -10.960938 7.148438 -11.882812 7.078125 -13.25 L 7.109375 -15.140625 L 7.078125 -16.921875 L 7.15625 -23.078125 C 7.15625 -23.859375 7.078125 -24.664062 6.921875 -25.5 C 6.648438 -25.882812 6.144531 -26.210938 5.40625 -26.484375 C 4.675781 -26.765625 3.40625 -26.96875 1.59375 -27.09375 L 1.59375 -29.21875 C 4.1875 -29.363281 6.46875 -29.90625 8.4375 -30.84375 C 9.769531 -31.445312 11.222656 -32.519531 12.796875 -34.0625 L 15.328125 -34.0625 C 15.429688 -30.925781 15.484375 -26.863281 15.484375 -21.875 L 15.21875 -6.4375 C 15.21875 -5.375 15.265625 -4.414062 15.359375 -3.5625 C 16.140625 -3.28125 17.414062 -3 19.1875 -2.71875 C 19.863281 -2.625 20.40625 -2.5 20.8125 -2.34375 L 20.78125 -0.265625 C 20.09375 -0.242188 19.585938 -0.234375 19.265625 -0.234375 C 18.878906 -0.234375 18.296875 -0.253906 17.515625 -0.296875 C 14.941406 -0.421875 11.5 -0.484375 7.1875 -0.484375 C 5.945312 -0.484375 4.75 -0.441406 3.59375 -0.359375 C 2.4375 -0.273438 1.644531 -0.234375 1.21875 -0.234375 Z M 1.21875 -0.234375 "/></g></g></g><path fill="#ffffff" d="M 83.421875 76.492188 C 83.421875 74.425781 83.421875 72.382812 83.421875 70.316406 C 83.421875 68.925781 83.539062 67.417969 83.121094 66.070312 C 80.800781 58.996094 70.726562 61.058594 70.449219 68.136719 C 70.449219 71.269531 70.449219 74.402344 70.449219 77.535156 C 70.449219 77.8125 70.449219 78.070312 70.449219 78.347656 C 70.449219 78.394531 70.449219 78.417969 70.449219 78.464844 C 70.449219 78.507812 70.449219 78.53125 70.449219 78.578125 C 70.449219 79.089844 70.449219 79.601562 70.425781 80.085938 C 70.425781 80.714844 70.425781 81.386719 70.472656 82.011719 C 70.796875 85.308594 73.628906 87.929688 76.949219 87.929688 C 80.636719 87.769531 83.28125 85.03125 83.445312 81.363281 C 83.46875 79.761719 83.421875 78.113281 83.421875 76.492188 Z M 68.199219 81.503906 C 68.128906 80.179688 68.199219 78.8125 68.199219 77.535156 C 68.199219 74.9375 68.199219 72.3125 68.199219 69.714844 C 68.199219 69.15625 68.199219 68.601562 68.246094 68.066406 C 68.222656 66.488281 68.199219 64.910156 68.199219 63.355469 C 68.199219 62.078125 68.222656 60.851562 67.734375 59.644531 C 66.621094 56.835938 63.652344 55.164062 60.679688 55.628906 C 57.480469 56.140625 55.34375 58.855469 55.203125 62.011719 C 55.160156 63.078125 55.179688 64.167969 55.203125 65.234375 C 59.335938 66.582031 62.628906 69.992188 61.308594 74.609375 C 60.308594 78.046875 57.964844 79.855469 55.113281 81.0625 C 55.160156 81.179688 55.179688 81.316406 55.203125 81.480469 C 55.320312 84.984375 58.082031 88 61.703125 87.976562 C 65.324219 87.953125 68.011719 85.007812 68.199219 81.503906 Z M 85.628906 71.039062 C 85.628906 73.707031 85.628906 76.351562 85.628906 79.042969 C 85.628906 81.039062 85.71875 82.964844 84.929688 84.84375 C 83.5625 88.09375 80.40625 90.042969 76.902344 90.15625 C 73.722656 90.15625 70.777344 88.347656 69.265625 85.609375 C 68.640625 86.910156 67.644531 88.046875 66.085938 88.976562 C 60.355469 92.339844 53.511719 88.140625 53.023438 81.828125 C 52.652344 81.945312 52.257812 82.082031 51.886719 82.175781 C 46.546875 83.777344 42.789062 86.863281 40.050781 91.503906 C 50.679688 94.265625 58.429688 103.570312 59.242188 114.570312 C 59.335938 115.984375 57.128906 115.960938 57.039062 114.570312 C 56.25 104.035156 48.382812 95.378906 38.078125 93.3125 C 37.335938 93.152344 37.105469 92.269531 37.40625 91.691406 C 39.84375 86.980469 43.347656 83.125 48.3125 81.109375 C 52.605469 79.320312 59.753906 78.578125 59.425781 72.265625 C 59.195312 67.464844 52.511719 66.535156 48.894531 66.953125 C 44.644531 67.441406 40.515625 69.15625 36.757812 71.105469 C 33.972656 72.523438 31.347656 74.214844 28.75 75.886719 C 27.777344 76.492188 26.824219 77.140625 25.851562 77.765625 C 25.6875 78.046875 25.386719 78.230469 25.082031 78.277344 C 22.042969 80.367188 19.167969 82.734375 17.289062 85.84375 C 14.734375 90.042969 14.851562 94.914062 16.683594 99.347656 C 19.003906 105.007812 22.972656 110.371094 26.707031 115.148438 C 28.308594 117.214844 30.050781 119.1875 31.859375 121.066406 C 32.671875 121.925781 33.53125 122.738281 34.414062 123.574219 C 34.898438 124.039062 35.640625 124.5 35.875 125.128906 C 36.199219 126.105469 35.921875 127.632812 35.921875 128.609375 C 35.921875 129.675781 35.921875 130.746094 35.921875 131.789062 C 35.921875 133.203125 33.714844 133.203125 33.714844 131.789062 C 33.714844 130.234375 33.714844 128.679688 33.714844 127.125 C 33.714844 126.753906 33.785156 126.242188 33.714844 125.847656 C 33.601562 125.175781 33.644531 125.824219 33.667969 125.847656 C 32.789062 124.851562 31.722656 124.015625 30.792969 123.0625 C 25.78125 117.980469 21.558594 112.109375 17.796875 106.054688 C 15.011719 101.574219 12.597656 96.539062 13.203125 91.132812 C 13.738281 86.375 16.453125 82.5 20.023438 79.414062 C 21.164062 78.417969 22.367188 77.511719 23.621094 76.605469 C 22.460938 72.382812 21.253906 68.160156 20.070312 63.9375 C 17.007812 52.9375 14.363281 41.730469 10.882812 30.890625 C 9.558594 26.785156 10.140625 22.351562 13.757812 19.566406 C 17.402344 16.738281 22.671875 17.527344 25.757812 20.84375 C 27.777344 23.003906 28.308594 25.902344 29.097656 28.664062 C 30.144531 32.332031 31.210938 35.972656 32.253906 39.640625 C 34.367188 46.949219 36.476562 54.285156 38.566406 61.59375 C 38.984375 62.960938 36.824219 63.542969 36.429688 62.171875 C 34.226562 54.5625 32.046875 46.949219 29.839844 39.363281 C 28.796875 35.695312 27.730469 32.050781 26.6875 28.386719 C 25.757812 25.066406 24.875 21.820312 21.371094 20.472656 C 15.523438 18.199219 11.066406 24.347656 12.785156 29.664062 C 13.085938 30.636719 13.390625 31.566406 13.644531 32.539062 C 15.105469 37.714844 16.523438 42.867188 17.984375 48.039062 C 20.511719 57.089844 23.019531 66.140625 25.546875 75.191406 C 27.660156 73.777344 29.839844 72.429688 32.023438 71.105469 C 35.246094 69.15625 38.636719 67.464844 42.210938 66.1875 C 45.597656 64.980469 49.472656 64.074219 53.117188 64.585938 C 53.070312 62.519531 53.023438 60.386719 53.835938 58.484375 C 55.179688 55.304688 58.382812 53.167969 61.863281 53.167969 C 67.179688 53.167969 70.21875 57.417969 70.542969 62.21875 C 74.71875 57.507812 82.84375 58.761719 85.183594 64.839844 C 85.789062 66.90625 85.628906 68.996094 85.628906 71.039062 Z M 41.558594 52.332031 C 43.207031 46.253906 44.878906 40.175781 46.523438 34.070312 C 47.40625 30.753906 48.335938 27.433594 49.21875 24.117188 C 50.449219 19.589844 56.015625 17.15625 59.871094 20.613281 C 63.699219 24.023438 61.378906 28.875 60.238281 33.003906 C 58.917969 37.945312 57.570312 42.890625 56.25 47.832031 C 55.878906 49.199219 58.011719 49.78125 58.382812 48.414062 C 59.707031 43.46875 61.050781 38.527344 62.375 33.582031 C 63.394531 29.824219 65.273438 25.878906 63.582031 22.050781 C 60.9375 16.015625 52.699219 14.996094 48.636719 20.148438 C 46.875 22.328125 46.523438 25.578125 45.804688 28.222656 C 44.53125 32.910156 43.253906 37.597656 41.976562 42.285156 C 41.117188 45.441406 40.261719 48.597656 39.402344 51.753906 C 39.03125 53.125 41.1875 53.726562 41.558594 52.332031 Z M 84.769531 93.753906 C 85.183594 103.082031 81.9375 112.296875 75.765625 119.304688 C 75.53125 119.558594 74.671875 120.671875 74.535156 120.511719 C 74.535156 120.71875 74.558594 120.953125 74.558594 121.089844 C 74.558594 122.4375 74.558594 123.757812 74.558594 125.105469 C 74.558594 127.355469 74.558594 129.585938 74.558594 131.835938 C 74.558594 133.25 72.351562 133.25 72.351562 131.835938 C 72.351562 129.585938 72.351562 127.355469 72.351562 125.105469 C 72.351562 123.503906 71.796875 120.765625 72.679688 119.351562 C 73.675781 117.75 75.371094 116.402344 76.507812 114.847656 C 78.0625 112.644531 79.339844 110.253906 80.335938 107.746094 C 82.078125 103.292969 82.796875 98.535156 82.609375 93.777344 C 82.496094 92.316406 84.722656 92.316406 84.769531 93.753906 " fill-opacity="1" fill-rule="nonzero"/></svg>