<svg xmlns="http://www.w3.org/2000/svg" xmlns:xlink="http://www.w3.org/1999/xlink" width="500" zoomAndPan="magnify" viewBox="0 0 375 374.999991" height="500" preserveAspectRatio="xMidYMid meet" version="1.0"><defs><g/></defs><g fill="#ffffff" fill-opacity="1"><g transform="translate(8.259034, 202.380704)"><g><path d="M 2.8125 -0.25 L 2.765625 -3.171875 C 3.304688 -3.441406 4.519531 -3.835938 6.40625 -4.359375 C 8.300781 -4.890625 9.351562 -5.273438 9.5625 -5.515625 C 9.9375 -5.890625 10.125 -6.421875 10.125 -7.109375 L 10.125 -8.234375 C 10.257812 -11.398438 10.328125 -13.171875 10.328125 -13.546875 C 10.328125 -13.847656 10.304688 -14.269531 10.265625 -14.8125 L 10.21875 -15.4375 L 10.265625 -16.09375 L 10.265625 -16.5625 L 9.96875 -25.34375 L 9.90625 -35.15625 L 9.8125 -36.125 C 9.195312 -36.125 8.296875 -36.160156 7.109375 -36.234375 L 3.890625 -36.234375 C 3.679688 -36.265625 3.390625 -36.332031 3.015625 -36.4375 C 2.984375 -37.351562 2.96875 -38.085938 2.96875 -38.640625 C 2.96875 -39.585938 3.203125 -40.351562 3.671875 -40.9375 C 4.703125 -40.9375 6.710938 -41.054688 9.703125 -41.296875 C 9.804688 -45.347656 10.460938 -49.148438 11.671875 -52.703125 C 12.878906 -56.265625 14.40625 -59.117188 16.25 -61.265625 L 17.578125 -62.75 C 19.828125 -64.65625 21.894531 -65.992188 23.78125 -66.765625 C 25.675781 -67.535156 27.914062 -67.921875 30.5 -67.921875 C 33.03125 -67.921875 35.117188 -67.507812 36.765625 -66.6875 C 38.421875 -65.875 39.5625 -64.828125 40.1875 -63.546875 C 40.820312 -62.265625 41.140625 -61.082031 41.140625 -60 C 41.140625 -58.632812 40.578125 -57.378906 39.453125 -56.234375 C 38.328125 -55.097656 37.082031 -54.53125 35.71875 -54.53125 C 34.695312 -54.53125 33.691406 -54.867188 32.703125 -55.546875 C 32.023438 -56.054688 31.195312 -57.117188 30.21875 -58.734375 C 29.25 -60.359375 28.492188 -61.390625 27.953125 -61.828125 C 27.410156 -62.242188 26.695312 -62.453125 25.8125 -62.453125 C 24.75 -62.453125 23.828125 -62.039062 23.046875 -61.21875 C 22.265625 -60.40625 21.71875 -59.226562 21.40625 -57.6875 C 21.101562 -56.15625 20.953125 -53.09375 20.953125 -48.5 L 20.90625 -42.875 L 20.953125 -41.390625 L 21.921875 -41.34375 L 28 -41.5 C 28.3125 -41.5 28.789062 -41.445312 29.4375 -41.34375 C 29.875 -40.9375 30.09375 -40.59375 30.09375 -40.3125 L 30.046875 -39.34375 L 30.046875 -37.96875 C 30.046875 -37.757812 29.992188 -37.367188 29.890625 -36.796875 C 29.585938 -36.617188 29.234375 -36.53125 28.828125 -36.53125 L 28.359375 -36.53125 L 24.484375 -36.484375 C 23.828125 -36.484375 23.332031 -36.5 23 -36.53125 L 22.53125 -36.53125 C 22.195312 -36.53125 21.6875 -36.460938 21 -36.328125 L 20.953125 -33.828125 C 20.953125 -33.585938 20.96875 -33.210938 21 -32.703125 C 21.070312 -30.765625 21.109375 -29.4375 21.109375 -28.71875 L 21.046875 -21.203125 L 21.15625 -15.734375 L 21.109375 -11.34375 C 21.003906 -8.238281 21.289062 -6.363281 21.96875 -5.71875 C 22.957031 -4.726562 25.019531 -4.066406 28.15625 -3.734375 C 28.738281 -3.691406 29.265625 -3.570312 29.734375 -3.375 C 29.878906 -2.550781 29.953125 -2.019531 29.953125 -1.78125 C 29.953125 -1.40625 29.878906 -0.878906 29.734375 -0.203125 L 26.0625 -0.203125 C 25.757812 -0.203125 23.765625 -0.320312 20.078125 -0.5625 L 17.328125 -0.765625 C 14.671875 -0.765625 12.609375 -0.695312 11.140625 -0.5625 C 10.359375 -0.457031 7.582031 -0.351562 2.8125 -0.25 Z M 2.8125 -0.25 "/></g></g></g><g fill="#ffffff" fill-opacity="1"><g transform="translate(45.121664, 202.380704)"><g><path d="M 4.390625 -27.390625 C 5.273438 -30.285156 6.0625 -32.210938 6.75 -33.171875 C 8.65625 -35.960938 10.6875 -38.140625 12.84375 -39.703125 C 15.007812 -41.273438 16.960938 -42.316406 18.703125 -42.828125 C 20.953125 -43.472656 22.773438 -43.796875 24.171875 -43.796875 C 27.367188 -43.796875 29.957031 -43.546875 31.9375 -43.046875 C 33.914062 -42.554688 35.566406 -41.851562 36.890625 -40.9375 C 38.796875 -39.601562 40.328125 -38.253906 41.484375 -36.890625 C 42.648438 -35.523438 43.597656 -33.921875 44.328125 -32.078125 C 45.054688 -30.242188 45.457031 -28.015625 45.53125 -25.390625 L 39.859375 -25.5 C 38.296875 -25.5 34.851562 -25.648438 29.53125 -25.953125 C 27.5625 -26.097656 26.203125 -26.171875 25.453125 -26.171875 C 25.210938 -26.171875 23.367188 -26.148438 19.921875 -26.109375 L 15.53125 -26.109375 C 15.46875 -25.628906 15.4375 -25.222656 15.4375 -24.890625 C 15.4375 -23.078125 15.65625 -21.175781 16.09375 -19.1875 C 16.539062 -17.195312 17.207031 -15.441406 18.09375 -13.921875 C 18.976562 -12.410156 20.078125 -11.109375 21.390625 -10.015625 C 22.703125 -8.921875 24.054688 -8.140625 25.453125 -7.671875 L 28.40625 -6.6875 C 31.03125 -6.6875 32.785156 -6.773438 33.671875 -6.953125 C 35.304688 -7.285156 36.742188 -7.71875 37.984375 -8.25 C 39.234375 -8.78125 40.742188 -9.675781 42.515625 -10.9375 C 43.742188 -10.050781 44.765625 -9.25 45.578125 -8.53125 C 42.578125 -5.226562 39.46875 -2.832031 36.25 -1.34375 C 33.03125 0.132812 29.429688 0.875 25.453125 0.875 C 22.753906 0.875 20.554688 0.632812 18.859375 0.15625 C 16.578125 -0.457031 14.515625 -1.394531 12.671875 -2.65625 C 10.828125 -3.914062 9.238281 -5.484375 7.90625 -7.359375 C 6.582031 -9.234375 5.597656 -11.160156 4.953125 -13.140625 C 4.097656 -15.722656 3.671875 -17.800781 3.671875 -19.375 C 3.671875 -22.332031 3.910156 -25.003906 4.390625 -27.390625 Z M 34.078125 -29.59375 C 34.046875 -31.5 33.671875 -33.316406 32.953125 -35.046875 C 32.242188 -36.785156 31.140625 -38.140625 29.640625 -39.109375 C 28.140625 -40.085938 26.625 -40.578125 25.09375 -40.578125 C 22.8125 -40.578125 20.75 -39.570312 18.90625 -37.5625 C 17.0625 -35.550781 16.023438 -32.828125 15.796875 -29.390625 L 27.4375 -29.328125 C 28.1875 -29.328125 29.242188 -29.378906 30.609375 -29.484375 C 31.597656 -29.585938 32.296875 -29.640625 32.703125 -29.640625 C 33.015625 -29.640625 33.472656 -29.625 34.078125 -29.59375 Z M 34.078125 -29.59375 "/></g></g></g><g fill="#ffffff" fill-opacity="1"><g transform="translate(99.408667, 202.380704)"><g><path d="M 13.484375 -39.5 C 15.160156 -40.65625 16.769531 -41.488281 18.3125 -42 C 19.863281 -42.507812 22.054688 -42.90625 24.890625 -43.1875 L 27.75 -43.1875 C 31.457031 -43.1875 35.015625 -41.90625 38.421875 -39.34375 L 38.53125 -40.578125 L 38.484375 -44 L 38.6875 -49.46875 C 38.6875 -55.226562 38.242188 -58.875 37.359375 -60.40625 C 36.847656 -61.320312 35.953125 -61.8125 34.671875 -61.875 C 33.390625 -61.945312 32.359375 -62.171875 31.578125 -62.546875 L 31.578125 -65 C 32.222656 -65.207031 33.054688 -65.316406 34.078125 -65.328125 C 35.109375 -65.347656 37.101562 -65.695312 40.0625 -66.375 L 41.796875 -66.734375 L 46.859375 -67.921875 C 47.878906 -68.148438 48.507812 -68.265625 48.75 -68.265625 C 48.914062 -68.265625 49.1875 -68.234375 49.5625 -68.171875 C 49.769531 -67.453125 49.875 -66.921875 49.875 -66.578125 L 49.828125 -65.8125 L 49.828125 -64.90625 C 49.828125 -63.945312 49.878906 -61.40625 49.984375 -57.28125 L 49.984375 -54.53125 L 50.03125 -53.046875 L 49.984375 -50.484375 L 50.125 -45.171875 L 50.03125 -42.0625 C 49.957031 -40.695312 49.921875 -38.550781 49.921875 -35.625 C 49.921875 -35.144531 49.941406 -34.71875 49.984375 -34.34375 L 49.984375 -32.453125 C 49.941406 -31.898438 49.921875 -31.488281 49.921875 -31.21875 C 49.921875 -30.707031 49.972656 -29.976562 50.078125 -29.03125 L 50.078125 -26.21875 L 50.03125 -25.140625 C 49.957031 -24.148438 49.921875 -22.785156 49.921875 -21.046875 C 49.921875 -19.273438 49.957031 -17.675781 50.03125 -16.25 C 50.0625 -15.664062 50.078125 -15.140625 50.078125 -14.671875 L 50.078125 -10.828125 C 50.078125 -9.609375 50.113281 -8.144531 50.1875 -6.4375 C 50.800781 -6.0625 52.296875 -5.789062 54.671875 -5.625 C 55.421875 -5.582031 56.085938 -5.492188 56.671875 -5.359375 C 56.835938 -4.847656 56.921875 -4.472656 56.921875 -4.234375 C 56.921875 -3.929688 56.800781 -3.472656 56.5625 -2.859375 C 55.164062 -2.515625 53.703125 -2.257812 52.171875 -2.09375 C 47.503906 -1.507812 44.179688 -0.691406 42.203125 0.359375 C 41.253906 0.898438 40.59375 1.171875 40.21875 1.171875 C 39.84375 1.171875 39.414062 1.140625 38.9375 1.078125 C 38.96875 0.460938 38.984375 0.0664062 38.984375 -0.109375 C 38.984375 -2.421875 38.9375 -3.898438 38.84375 -4.546875 C 38.332031 -4.273438 37.703125 -3.914062 36.953125 -3.46875 C 34.660156 -2.113281 32.578125 -1.171875 30.703125 -0.640625 C 28.835938 -0.109375 26.691406 0.15625 24.265625 0.15625 C 19.972656 0.15625 16.550781 -0.660156 14 -2.296875 C 10.21875 -4.679688 7.601562 -7.539062 6.15625 -10.875 C 4.707031 -14.21875 3.984375 -17.882812 3.984375 -21.875 C 3.984375 -28.75 7.148438 -34.625 13.484375 -39.5 Z M 29.234375 -5.671875 C 29.941406 -5.597656 30.550781 -5.5625 31.0625 -5.5625 C 32.1875 -5.5625 33.390625 -5.800781 34.671875 -6.28125 C 35.953125 -6.757812 37.304688 -7.457031 38.734375 -8.375 C 38.765625 -9.5 38.78125 -10.195312 38.78125 -10.46875 C 38.78125 -21.269531 38.628906 -27.78125 38.328125 -30 C 37.921875 -32.957031 36.796875 -35.238281 34.953125 -36.84375 C 33.109375 -38.445312 30.878906 -39.25 28.265625 -39.25 C 26.765625 -39.25 25.335938 -38.972656 23.984375 -38.421875 C 22.640625 -37.878906 21.546875 -37.097656 20.703125 -36.078125 C 19.441406 -34.578125 18.484375 -32.875 17.828125 -30.96875 C 16.941406 -28.3125 16.5 -25.820312 16.5 -23.5 C 16.5 -17.945312 17.675781 -13.695312 20.03125 -10.75 C 22.382812 -7.8125 25.453125 -6.117188 29.234375 -5.671875 Z M 29.234375 -5.671875 "/></g></g></g><g fill="#ffffff" fill-opacity="1"><g transform="translate(162.433405, 202.380704)"><g><path d="M 4.390625 -27.390625 C 5.273438 -30.285156 6.0625 -32.210938 6.75 -33.171875 C 8.65625 -35.960938 10.6875 -38.140625 12.84375 -39.703125 C 15.007812 -41.273438 16.960938 -42.316406 18.703125 -42.828125 C 20.953125 -43.472656 22.773438 -43.796875 24.171875 -43.796875 C 27.367188 -43.796875 29.957031 -43.546875 31.9375 -43.046875 C 33.914062 -42.554688 35.566406 -41.851562 36.890625 -40.9375 C 38.796875 -39.601562 40.328125 -38.253906 41.484375 -36.890625 C 42.648438 -35.523438 43.597656 -33.921875 44.328125 -32.078125 C 45.054688 -30.242188 45.457031 -28.015625 45.53125 -25.390625 L 39.859375 -25.5 C 38.296875 -25.5 34.851562 -25.648438 29.53125 -25.953125 C 27.5625 -26.097656 26.203125 -26.171875 25.453125 -26.171875 C 25.210938 -26.171875 23.367188 -26.148438 19.921875 -26.109375 L 15.53125 -26.109375 C 15.46875 -25.628906 15.4375 -25.222656 15.4375 -24.890625 C 15.4375 -23.078125 15.65625 -21.175781 16.09375 -19.1875 C 16.539062 -17.195312 17.207031 -15.441406 18.09375 -13.921875 C 18.976562 -12.410156 20.078125 -11.109375 21.390625 -10.015625 C 22.703125 -8.921875 24.054688 -8.140625 25.453125 -7.671875 L 28.40625 -6.6875 C 31.03125 -6.6875 32.785156 -6.773438 33.671875 -6.953125 C 35.304688 -7.285156 36.742188 -7.71875 37.984375 -8.25 C 39.234375 -8.78125 40.742188 -9.675781 42.515625 -10.9375 C 43.742188 -10.050781 44.765625 -9.25 45.578125 -8.53125 C 42.578125 -5.226562 39.46875 -2.832031 36.25 -1.34375 C 33.03125 0.132812 29.429688 0.875 25.453125 0.875 C 22.753906 0.875 20.554688 0.632812 18.859375 0.15625 C 16.578125 -0.457031 14.515625 -1.394531 12.671875 -2.65625 C 10.828125 -3.914062 9.238281 -5.484375 7.90625 -7.359375 C 6.582031 -9.234375 5.597656 -11.160156 4.953125 -13.140625 C 4.097656 -15.722656 3.671875 -17.800781 3.671875 -19.375 C 3.671875 -22.332031 3.910156 -25.003906 4.390625 -27.390625 Z M 34.078125 -29.59375 C 34.046875 -31.5 33.671875 -33.316406 32.953125 -35.046875 C 32.242188 -36.785156 31.140625 -38.140625 29.640625 -39.109375 C 28.140625 -40.085938 26.625 -40.578125 25.09375 -40.578125 C 22.8125 -40.578125 20.75 -39.570312 18.90625 -37.5625 C 17.0625 -35.550781 16.023438 -32.828125 15.796875 -29.390625 L 27.4375 -29.328125 C 28.1875 -29.328125 29.242188 -29.378906 30.609375 -29.484375 C 31.597656 -29.585938 32.296875 -29.640625 32.703125 -29.640625 C 33.015625 -29.640625 33.472656 -29.625 34.078125 -29.59375 Z M 34.078125 -29.59375 "/></g></g></g><g fill="#ffffff" fill-opacity="1"><g transform="translate(216.720408, 202.380704)"><g><path d="M 2 -2.8125 C 2.4375 -3.1875 3.015625 -3.457031 3.734375 -3.625 C 5.472656 -4 7.125 -4.679688 8.6875 -5.671875 C 8.988281 -6.492188 9.140625 -9.253906 9.140625 -13.953125 C 9.140625 -22.566406 8.953125 -28.390625 8.578125 -31.421875 C 8.515625 -31.972656 8.242188 -32.453125 7.765625 -32.859375 C 6.910156 -33.296875 5.753906 -33.6875 4.296875 -34.03125 C 3.609375 -34.207031 3.195312 -34.582031 3.0625 -35.15625 L 2.90625 -37.046875 C 5.425781 -37.390625 7.707031 -38.25 9.75 -39.625 C 11.800781 -41.007812 13.335938 -42.414062 14.359375 -43.84375 C 14.898438 -44.625 15.378906 -45.222656 15.796875 -45.640625 L 19.375 -45.78125 C 19.539062 -45 19.625 -44.351562 19.625 -43.84375 C 19.625 -43.46875 19.609375 -43.007812 19.578125 -42.46875 C 19.535156 -41.269531 19.515625 -40.28125 19.515625 -39.5 C 19.515625 -39.125 19.535156 -37.710938 19.578125 -35.265625 C 20.972656 -37.648438 21.992188 -39.25 22.640625 -40.0625 C 22.941406 -40.4375 23.84375 -41.269531 25.34375 -42.5625 C 26.5 -43.414062 27.8125 -43.84375 29.28125 -43.84375 C 31.082031 -43.84375 32.644531 -43.226562 33.96875 -42 C 35.300781 -40.78125 35.96875 -39.367188 35.96875 -37.765625 C 35.96875 -36.160156 35.460938 -34.71875 34.453125 -33.4375 C 33.453125 -32.164062 32.117188 -31.53125 30.453125 -31.53125 C 28.992188 -31.53125 27.460938 -32.144531 25.859375 -33.375 C 24.898438 -34.125 24.132812 -34.5 23.5625 -34.5 L 23.203125 -34.4375 C 22.484375 -34.195312 21.835938 -33.550781 21.265625 -32.5 C 20.304688 -30.800781 19.828125 -29.03125 19.828125 -27.1875 L 19.921875 -25.8125 C 20.066406 -23.289062 20.171875 -17.378906 20.234375 -8.078125 C 20.335938 -7.222656 20.660156 -6.367188 21.203125 -5.515625 C 21.816406 -5.035156 22.4375 -4.691406 23.0625 -4.484375 C 23.695312 -4.285156 24.796875 -4.117188 26.359375 -3.984375 C 27.929688 -3.847656 28.882812 -3.632812 29.21875 -3.34375 C 29.5625 -3.050781 29.734375 -2.582031 29.734375 -1.9375 C 29.734375 -1.5625 29.632812 -1.066406 29.4375 -0.453125 L 24.625 -0.453125 L 14.875 -0.96875 C 12.414062 -0.96875 10.179688 -0.867188 8.171875 -0.671875 L 7.3125 -0.671875 C 7.070312 -0.671875 5.300781 -0.582031 2 -0.40625 C 1.894531 -0.945312 1.84375 -1.359375 1.84375 -1.640625 C 1.84375 -1.910156 1.894531 -2.300781 2 -2.8125 Z M 2 -2.8125 "/></g></g></g><g fill="#ffffff" fill-opacity="1"><g transform="translate(257.926346, 202.380704)"><g><path d="M -0.5625 -41.796875 L 0.359375 -41.859375 L 1.125 -41.859375 C 1.394531 -41.859375 2.578125 -41.753906 4.671875 -41.546875 C 6.765625 -41.335938 8.695312 -41.234375 10.46875 -41.234375 C 11.832031 -41.234375 13.738281 -41.335938 16.1875 -41.546875 C 18.644531 -41.753906 20.148438 -41.859375 20.703125 -41.859375 C 21.140625 -41.859375 21.769531 -41.835938 22.59375 -41.796875 C 22.65625 -41.148438 22.6875 -40.625 22.6875 -40.21875 C 22.6875 -39.875 22.617188 -39.484375 22.484375 -39.046875 C 21.972656 -38.867188 21.378906 -38.734375 20.703125 -38.640625 C 19.203125 -38.359375 18.160156 -38.050781 17.578125 -37.71875 C 17.410156 -37.613281 17.273438 -37.375 17.171875 -37 C 17.441406 -35.976562 17.726562 -35.078125 18.03125 -34.296875 L 23.046875 -22.84375 C 24.679688 -19.0625 26.113281 -16.113281 27.34375 -14 C 28.019531 -12.46875 28.476562 -11.445312 28.71875 -10.9375 C 31.914062 -16.59375 34.332031 -21.957031 35.96875 -27.03125 L 33.671875 -31.890625 C 32.722656 -34.003906 31.738281 -35.925781 30.71875 -37.65625 C 30.101562 -37.832031 29.4375 -38.003906 28.71875 -38.171875 C 27.457031 -38.484375 26.300781 -38.804688 25.25 -39.140625 L 25.25 -41.953125 C 27.769531 -41.921875 29.488281 -41.851562 30.40625 -41.75 C 31.9375 -41.613281 34.21875 -41.546875 37.25 -41.546875 C 38.75 -41.546875 40.585938 -41.585938 42.765625 -41.671875 C 44.953125 -41.753906 46.285156 -41.796875 46.765625 -41.796875 L 49.265625 -41.796875 L 49.109375 -38.890625 C 48.734375 -38.859375 47.878906 -38.769531 46.546875 -38.625 C 45.222656 -38.488281 44.050781 -38.269531 43.03125 -37.96875 C 44.726562 -33.738281 45.851562 -31.132812 46.40625 -30.15625 L 47.015625 -29.03125 L 52.484375 -17.0625 L 54.375 -12.984375 L 56.359375 -17.375 C 57.992188 -20.945312 58.96875 -23.128906 59.28125 -23.921875 C 60.269531 -26.472656 60.847656 -27.9375 61.015625 -28.3125 C 62.617188 -31.6875 63.421875 -34.191406 63.421875 -35.828125 C 63.421875 -36.265625 63.0625 -36.722656 62.34375 -37.203125 C 62.132812 -37.335938 60.875 -37.765625 58.5625 -38.484375 C 56.925781 -38.679688 55.816406 -38.882812 55.234375 -39.09375 L 55.5 -41.75 C 56.007812 -41.820312 56.4375 -41.859375 56.78125 -41.859375 C 57.050781 -41.859375 58.585938 -41.742188 61.390625 -41.515625 C 64.203125 -41.296875 65.847656 -41.1875 66.328125 -41.1875 C 67.617188 -41.1875 69.59375 -41.320312 72.25 -41.59375 C 73.414062 -41.695312 74.375 -41.75 75.125 -41.75 L 75.125 -40.265625 C 75.125 -39.992188 75.101562 -39.46875 75.0625 -38.6875 C 71.726562 -37.695312 69.632812 -36.894531 68.78125 -36.28125 C 68.570312 -36.144531 68.351562 -35.820312 68.125 -35.3125 L 60.34375 -17.734375 C 59.019531 -14.941406 56.773438 -9.625 53.609375 -1.78125 C 53.160156 -0.726562 52.816406 0.0859375 52.578125 0.671875 L 48.75 0.671875 L 40.015625 -18.8125 L 39.09375 -20.796875 C 38.820312 -21.410156 38.5 -22.039062 38.125 -22.6875 L 37.65625 -21.875 L 31.53125 -9.203125 C 30.613281 -7.222656 29.753906 -5.5 28.953125 -4.03125 C 28.148438 -2.570312 27.441406 -1.054688 26.828125 0.515625 L 25.046875 0.5625 L 22.28125 0.515625 L 14.3125 -16.453125 L 5.671875 -35.0625 C 5.128906 -36.039062 4.617188 -36.71875 4.140625 -37.09375 C 3.316406 -37.707031 2.382812 -38.109375 1.34375 -38.296875 C 0.3125 -38.484375 -0.335938 -38.695312 -0.609375 -38.9375 C -0.648438 -39.582031 -0.671875 -40.078125 -0.671875 -40.421875 C -0.671875 -40.898438 -0.632812 -41.359375 -0.5625 -41.796875 Z M -0.5625 -41.796875 "/></g></g></g><g fill="#ffffff" fill-opacity="1"><g transform="translate(337.302401, 202.380704)"><g><path d="M 8.796875 -61.265625 C 8.796875 -63.109375 9.390625 -64.617188 10.578125 -65.796875 C 11.765625 -66.972656 13.296875 -67.5625 15.171875 -67.5625 C 17.179688 -67.5625 18.847656 -66.9375 20.171875 -65.6875 C 21.503906 -64.445312 22.171875 -63.039062 22.171875 -61.46875 C 22.171875 -60.3125 21.90625 -59.15625 21.375 -58 C 20.851562 -56.84375 20.019531 -55.914062 18.875 -55.21875 C 17.738281 -54.519531 16.570312 -54.171875 15.375 -54.171875 C 13.738281 -54.171875 12.234375 -54.867188 10.859375 -56.265625 C 9.484375 -57.660156 8.796875 -59.328125 8.796875 -61.265625 Z M 1.640625 -0.3125 L 1.53125 -3.625 L 7.3125 -4.390625 C 8.15625 -4.628906 8.738281 -4.976562 9.0625 -5.4375 C 9.394531 -5.894531 9.5625 -6.925781 9.5625 -8.53125 L 9.5625 -9.09375 C 9.5625 -9.5 9.582031 -10.238281 9.625 -11.3125 C 9.675781 -12.382812 9.703125 -13.332031 9.703125 -14.15625 C 9.703125 -14.800781 9.65625 -16.046875 9.5625 -17.890625 L 9.609375 -20.4375 L 9.5625 -22.84375 L 9.65625 -31.171875 C 9.65625 -32.222656 9.554688 -33.3125 9.359375 -34.4375 C 8.984375 -34.945312 8.300781 -35.390625 7.3125 -35.765625 C 6.320312 -36.140625 4.597656 -36.414062 2.140625 -36.59375 L 2.140625 -39.453125 C 5.648438 -39.648438 8.734375 -40.378906 11.390625 -41.640625 C 13.203125 -42.460938 15.160156 -43.910156 17.265625 -45.984375 L 20.703125 -45.984375 C 20.835938 -41.765625 20.90625 -36.28125 20.90625 -29.53125 L 20.546875 -8.6875 C 20.546875 -7.257812 20.613281 -5.960938 20.75 -4.796875 C 21.800781 -4.421875 23.519531 -4.046875 25.90625 -3.671875 C 26.820312 -3.535156 27.554688 -3.367188 28.109375 -3.171875 L 28.0625 -0.359375 C 27.132812 -0.328125 26.453125 -0.3125 26.015625 -0.3125 C 25.503906 -0.3125 24.71875 -0.34375 23.65625 -0.40625 C 20.1875 -0.582031 15.535156 -0.671875 9.703125 -0.671875 C 8.035156 -0.671875 6.414062 -0.609375 4.84375 -0.484375 C 3.28125 -0.367188 2.210938 -0.3125 1.640625 -0.3125 Z M 1.640625 -0.3125 "/></g></g></g></svg>