<svg xmlns="http://www.w3.org/2000/svg" xmlns:xlink="http://www.w3.org/1999/xlink" width="500" zoomAndPan="magnify" viewBox="0 0 375 374.999991" height="500" preserveAspectRatio="xMidYMid meet" version="1.0"><defs><g/><clipPath id="5f8bb8f84c"><path d="M 119 26 L 256.347656 26 L 256.347656 237 L 119 237 Z M 119 26 " clip-rule="nonzero"/></clipPath></defs><g fill="#ffffff" fill-opacity="1"><g transform="translate(39.055011, 312.800845)"><g><path d="M 2.328125 -0.21875 L 2.28125 -2.625 C 2.738281 -2.851562 3.75 -3.1875 5.3125 -3.625 C 6.875 -4.0625 7.738281 -4.375 7.90625 -4.5625 C 8.21875 -4.875 8.375 -5.3125 8.375 -5.875 L 8.375 -6.8125 C 8.488281 -9.4375 8.546875 -10.90625 8.546875 -11.21875 C 8.546875 -11.46875 8.53125 -11.816406 8.5 -12.265625 L 8.46875 -12.78125 L 8.5 -13.328125 L 8.5 -13.703125 L 8.25 -20.984375 L 8.203125 -29.109375 L 8.125 -29.921875 C 7.613281 -29.921875 6.863281 -29.945312 5.875 -30 L 3.21875 -30 C 3.050781 -30.03125 2.8125 -30.085938 2.5 -30.171875 C 2.46875 -30.929688 2.453125 -31.535156 2.453125 -31.984375 C 2.453125 -32.773438 2.648438 -33.410156 3.046875 -33.890625 C 3.890625 -33.890625 5.554688 -33.988281 8.046875 -34.1875 C 8.128906 -37.539062 8.671875 -40.691406 9.671875 -43.640625 C 10.671875 -46.585938 11.929688 -48.953125 13.453125 -50.734375 L 14.5625 -51.953125 C 16.414062 -53.535156 18.125 -54.644531 19.6875 -55.28125 C 21.257812 -55.914062 23.117188 -56.234375 25.265625 -56.234375 C 27.347656 -56.234375 29.070312 -55.894531 30.4375 -55.21875 C 31.8125 -54.539062 32.757812 -53.671875 33.28125 -52.609375 C 33.800781 -51.554688 34.0625 -50.578125 34.0625 -49.671875 C 34.0625 -48.546875 33.59375 -47.507812 32.65625 -46.5625 C 31.726562 -45.613281 30.703125 -45.140625 29.578125 -45.140625 C 28.734375 -45.140625 27.898438 -45.425781 27.078125 -46 C 26.515625 -46.414062 25.832031 -47.289062 25.03125 -48.625 C 24.226562 -49.96875 23.597656 -50.828125 23.140625 -51.203125 C 22.691406 -51.535156 22.101562 -51.703125 21.375 -51.703125 C 20.5 -51.703125 19.734375 -51.363281 19.078125 -50.6875 C 18.429688 -50.007812 17.976562 -49.035156 17.71875 -47.765625 C 17.46875 -46.492188 17.34375 -43.957031 17.34375 -40.15625 L 17.3125 -35.5 L 17.34375 -34.265625 L 18.15625 -34.234375 L 23.1875 -34.359375 C 23.4375 -34.359375 23.832031 -34.316406 24.375 -34.234375 C 24.738281 -33.890625 24.921875 -33.609375 24.921875 -33.390625 L 24.875 -32.578125 L 24.875 -31.4375 C 24.875 -31.269531 24.832031 -30.945312 24.75 -30.46875 C 24.5 -30.320312 24.203125 -30.25 23.859375 -30.25 L 23.484375 -30.25 L 20.265625 -30.21875 C 19.734375 -30.21875 19.328125 -30.226562 19.046875 -30.25 L 18.65625 -30.25 C 18.375 -30.25 17.953125 -30.191406 17.390625 -30.078125 L 17.34375 -28.015625 C 17.34375 -27.816406 17.359375 -27.503906 17.390625 -27.078125 C 17.441406 -25.472656 17.46875 -24.375 17.46875 -23.78125 L 17.4375 -17.5625 L 17.515625 -13.03125 L 17.46875 -9.390625 C 17.382812 -6.828125 17.625 -5.273438 18.1875 -4.734375 C 19.007812 -3.921875 20.71875 -3.375 23.3125 -3.09375 C 23.789062 -3.0625 24.226562 -2.960938 24.625 -2.796875 C 24.738281 -2.117188 24.796875 -1.679688 24.796875 -1.484375 C 24.796875 -1.171875 24.738281 -0.734375 24.625 -0.171875 L 21.578125 -0.171875 C 21.328125 -0.171875 19.675781 -0.269531 16.625 -0.46875 L 14.34375 -0.640625 C 12.144531 -0.640625 10.4375 -0.582031 9.21875 -0.46875 C 8.570312 -0.382812 6.273438 -0.300781 2.328125 -0.21875 Z M 2.328125 -0.21875 "/></g></g></g><g fill="#ffffff" fill-opacity="1"><g transform="translate(69.579893, 312.800845)"><g><path d="M 3.640625 -22.671875 C 4.367188 -25.078125 5.015625 -26.671875 5.578125 -27.453125 C 7.160156 -29.773438 8.847656 -31.582031 10.640625 -32.875 C 12.429688 -34.175781 14.046875 -35.035156 15.484375 -35.453125 C 17.347656 -35.992188 18.859375 -36.265625 20.015625 -36.265625 C 22.660156 -36.265625 24.800781 -36.054688 26.4375 -35.640625 C 28.082031 -35.234375 29.453125 -34.648438 30.546875 -33.890625 C 32.128906 -32.796875 33.398438 -31.679688 34.359375 -30.546875 C 35.316406 -29.421875 36.097656 -28.09375 36.703125 -26.5625 C 37.304688 -25.039062 37.640625 -23.195312 37.703125 -21.03125 L 33 -21.109375 C 31.707031 -21.109375 28.859375 -21.238281 24.453125 -21.5 C 22.816406 -21.613281 21.691406 -21.671875 21.078125 -21.671875 C 20.878906 -21.671875 19.351562 -21.65625 16.5 -21.625 L 12.859375 -21.625 C 12.804688 -21.226562 12.78125 -20.890625 12.78125 -20.609375 C 12.78125 -19.109375 12.960938 -17.53125 13.328125 -15.875 C 13.691406 -14.226562 14.238281 -12.773438 14.96875 -11.515625 C 15.707031 -10.265625 16.617188 -9.1875 17.703125 -8.28125 C 18.796875 -7.382812 19.921875 -6.738281 21.078125 -6.34375 L 23.53125 -5.546875 C 25.695312 -5.546875 27.148438 -5.613281 27.890625 -5.75 C 29.242188 -6.03125 30.429688 -6.390625 31.453125 -6.828125 C 32.484375 -7.265625 33.734375 -8.007812 35.203125 -9.0625 C 36.222656 -8.320312 37.070312 -7.65625 37.75 -7.0625 C 35.257812 -4.332031 32.679688 -2.351562 30.015625 -1.125 C 27.347656 0.101562 24.367188 0.71875 21.078125 0.71875 C 18.847656 0.71875 17.023438 0.519531 15.609375 0.125 C 13.722656 -0.382812 12.015625 -1.160156 10.484375 -2.203125 C 8.960938 -3.242188 7.648438 -4.539062 6.546875 -6.09375 C 5.453125 -7.644531 4.640625 -9.238281 4.109375 -10.875 C 3.398438 -13.019531 3.046875 -14.738281 3.046875 -16.03125 C 3.046875 -18.488281 3.242188 -20.703125 3.640625 -22.671875 Z M 28.21875 -24.5 C 28.195312 -26.082031 27.890625 -27.59375 27.296875 -29.03125 C 26.703125 -30.46875 25.78125 -31.585938 24.53125 -32.390625 C 23.289062 -33.191406 22.039062 -33.59375 20.78125 -33.59375 C 18.882812 -33.59375 17.175781 -32.757812 15.65625 -31.09375 C 14.132812 -29.4375 13.273438 -27.179688 13.078125 -24.328125 L 22.71875 -24.28125 C 23.34375 -24.28125 24.21875 -24.328125 25.34375 -24.421875 C 26.164062 -24.503906 26.742188 -24.546875 27.078125 -24.546875 C 27.328125 -24.546875 27.707031 -24.53125 28.21875 -24.5 Z M 28.21875 -24.5 "/></g></g></g><g fill="#ffffff" fill-opacity="1"><g transform="translate(114.533427, 312.800845)"><g><path d="M 11.171875 -32.703125 C 12.554688 -33.660156 13.890625 -34.351562 15.171875 -34.78125 C 16.453125 -35.207031 18.265625 -35.53125 20.609375 -35.75 L 22.96875 -35.75 C 26.050781 -35.75 29 -34.691406 31.8125 -32.578125 L 31.90625 -33.59375 L 31.859375 -36.4375 L 32.03125 -40.953125 C 32.03125 -45.722656 31.664062 -48.742188 30.9375 -50.015625 C 30.507812 -50.773438 29.765625 -51.179688 28.703125 -51.234375 C 27.648438 -51.296875 26.800781 -51.484375 26.15625 -51.796875 L 26.15625 -53.828125 C 26.6875 -53.992188 27.375 -54.082031 28.21875 -54.09375 C 29.0625 -54.113281 30.710938 -54.40625 33.171875 -54.96875 L 34.609375 -55.265625 L 38.796875 -56.234375 C 39.640625 -56.429688 40.160156 -56.53125 40.359375 -56.53125 C 40.503906 -56.53125 40.734375 -56.5 41.046875 -56.4375 C 41.210938 -55.851562 41.296875 -55.421875 41.296875 -55.140625 L 41.25 -54.5 L 41.25 -53.734375 C 41.25 -52.941406 41.289062 -50.84375 41.375 -47.4375 L 41.375 -45.140625 L 41.421875 -43.921875 L 41.375 -41.8125 L 41.515625 -37.40625 L 41.421875 -34.828125 C 41.367188 -33.691406 41.34375 -31.910156 41.34375 -29.484375 C 41.34375 -29.097656 41.351562 -28.75 41.375 -28.4375 L 41.375 -26.875 C 41.351562 -26.414062 41.34375 -26.078125 41.34375 -25.859375 C 41.34375 -25.429688 41.382812 -24.820312 41.46875 -24.03125 L 41.46875 -21.703125 L 41.421875 -20.8125 C 41.367188 -20 41.34375 -18.875 41.34375 -17.4375 C 41.34375 -15.96875 41.367188 -14.640625 41.421875 -13.453125 C 41.453125 -12.972656 41.46875 -12.535156 41.46875 -12.140625 L 41.46875 -8.96875 C 41.46875 -7.957031 41.492188 -6.742188 41.546875 -5.328125 C 42.054688 -5.015625 43.300781 -4.789062 45.28125 -4.65625 C 45.894531 -4.625 46.441406 -4.550781 46.921875 -4.4375 C 47.066406 -4.019531 47.140625 -3.710938 47.140625 -3.515625 C 47.140625 -3.253906 47.039062 -2.875 46.84375 -2.375 C 45.6875 -2.09375 44.472656 -1.878906 43.203125 -1.734375 C 39.335938 -1.253906 36.585938 -0.578125 34.953125 0.296875 C 34.160156 0.742188 33.609375 0.96875 33.296875 0.96875 C 32.984375 0.96875 32.632812 0.941406 32.25 0.890625 C 32.269531 0.378906 32.28125 0.0546875 32.28125 -0.078125 C 32.28125 -2.003906 32.238281 -3.234375 32.15625 -3.765625 C 31.726562 -3.535156 31.207031 -3.238281 30.59375 -2.875 C 28.695312 -1.75 26.972656 -0.96875 25.421875 -0.53125 C 23.878906 -0.09375 22.101562 0.125 20.09375 0.125 C 16.539062 0.125 13.707031 -0.550781 11.59375 -1.90625 C 8.457031 -3.875 6.289062 -6.238281 5.09375 -9 C 3.894531 -11.769531 3.296875 -14.804688 3.296875 -18.109375 C 3.296875 -23.804688 5.921875 -28.671875 11.171875 -32.703125 Z M 24.203125 -4.703125 C 24.796875 -4.640625 25.300781 -4.609375 25.71875 -4.609375 C 26.65625 -4.609375 27.648438 -4.804688 28.703125 -5.203125 C 29.765625 -5.597656 30.890625 -6.175781 32.078125 -6.9375 C 32.097656 -7.863281 32.109375 -8.441406 32.109375 -8.671875 C 32.109375 -17.617188 31.984375 -23.007812 31.734375 -24.84375 C 31.398438 -27.289062 30.46875 -29.175781 28.9375 -30.5 C 27.414062 -31.832031 25.570312 -32.5 23.40625 -32.5 C 22.15625 -32.5 20.972656 -32.269531 19.859375 -31.8125 C 18.742188 -31.363281 17.835938 -30.71875 17.140625 -29.875 C 16.097656 -28.632812 15.304688 -27.222656 14.765625 -25.640625 C 14.035156 -23.441406 13.671875 -21.382812 13.671875 -19.46875 C 13.671875 -14.863281 14.640625 -11.34375 16.578125 -8.90625 C 18.523438 -6.46875 21.066406 -5.066406 24.203125 -4.703125 Z M 24.203125 -4.703125 "/></g></g></g><g fill="#ffffff" fill-opacity="1"><g transform="translate(166.72246, 312.800845)"><g><path d="M 3.640625 -22.671875 C 4.367188 -25.078125 5.015625 -26.671875 5.578125 -27.453125 C 7.160156 -29.773438 8.847656 -31.582031 10.640625 -32.875 C 12.429688 -34.175781 14.046875 -35.035156 15.484375 -35.453125 C 17.347656 -35.992188 18.859375 -36.265625 20.015625 -36.265625 C 22.660156 -36.265625 24.800781 -36.054688 26.4375 -35.640625 C 28.082031 -35.234375 29.453125 -34.648438 30.546875 -33.890625 C 32.128906 -32.796875 33.398438 -31.679688 34.359375 -30.546875 C 35.316406 -29.421875 36.097656 -28.09375 36.703125 -26.5625 C 37.304688 -25.039062 37.640625 -23.195312 37.703125 -21.03125 L 33 -21.109375 C 31.707031 -21.109375 28.859375 -21.238281 24.453125 -21.5 C 22.816406 -21.613281 21.691406 -21.671875 21.078125 -21.671875 C 20.878906 -21.671875 19.351562 -21.65625 16.5 -21.625 L 12.859375 -21.625 C 12.804688 -21.226562 12.78125 -20.890625 12.78125 -20.609375 C 12.78125 -19.109375 12.960938 -17.53125 13.328125 -15.875 C 13.691406 -14.226562 14.238281 -12.773438 14.96875 -11.515625 C 15.707031 -10.265625 16.617188 -9.1875 17.703125 -8.28125 C 18.796875 -7.382812 19.921875 -6.738281 21.078125 -6.34375 L 23.53125 -5.546875 C 25.695312 -5.546875 27.148438 -5.613281 27.890625 -5.75 C 29.242188 -6.03125 30.429688 -6.390625 31.453125 -6.828125 C 32.484375 -7.265625 33.734375 -8.007812 35.203125 -9.0625 C 36.222656 -8.320312 37.070312 -7.65625 37.75 -7.0625 C 35.257812 -4.332031 32.679688 -2.351562 30.015625 -1.125 C 27.347656 0.101562 24.367188 0.71875 21.078125 0.71875 C 18.847656 0.71875 17.023438 0.519531 15.609375 0.125 C 13.722656 -0.382812 12.015625 -1.160156 10.484375 -2.203125 C 8.960938 -3.242188 7.648438 -4.539062 6.546875 -6.09375 C 5.453125 -7.644531 4.640625 -9.238281 4.109375 -10.875 C 3.398438 -13.019531 3.046875 -14.738281 3.046875 -16.03125 C 3.046875 -18.488281 3.242188 -20.703125 3.640625 -22.671875 Z M 28.21875 -24.5 C 28.195312 -26.082031 27.890625 -27.59375 27.296875 -29.03125 C 26.703125 -30.46875 25.78125 -31.585938 24.53125 -32.390625 C 23.289062 -33.191406 22.039062 -33.59375 20.78125 -33.59375 C 18.882812 -33.59375 17.175781 -32.757812 15.65625 -31.09375 C 14.132812 -29.4375 13.273438 -27.179688 13.078125 -24.328125 L 22.71875 -24.28125 C 23.34375 -24.28125 24.21875 -24.328125 25.34375 -24.421875 C 26.164062 -24.503906 26.742188 -24.546875 27.078125 -24.546875 C 27.328125 -24.546875 27.707031 -24.53125 28.21875 -24.5 Z M 28.21875 -24.5 "/></g></g></g><g fill="#ffffff" fill-opacity="1"><g transform="translate(211.675994, 312.800845)"><g><path d="M 1.65625 -2.328125 C 2.019531 -2.640625 2.5 -2.863281 3.09375 -3 C 4.53125 -3.3125 5.894531 -3.878906 7.1875 -4.703125 C 7.445312 -5.378906 7.578125 -7.660156 7.578125 -11.546875 C 7.578125 -18.679688 7.421875 -23.503906 7.109375 -26.015625 C 7.054688 -26.472656 6.832031 -26.867188 6.4375 -27.203125 C 5.726562 -27.566406 4.765625 -27.894531 3.546875 -28.1875 C 2.984375 -28.320312 2.644531 -28.628906 2.53125 -29.109375 L 2.40625 -30.671875 C 4.5 -30.953125 6.390625 -31.664062 8.078125 -32.8125 C 9.773438 -33.957031 11.046875 -35.117188 11.890625 -36.296875 C 12.335938 -36.953125 12.734375 -37.445312 13.078125 -37.78125 L 16.03125 -37.90625 C 16.175781 -37.257812 16.25 -36.722656 16.25 -36.296875 C 16.25 -35.992188 16.234375 -35.613281 16.203125 -35.15625 C 16.171875 -34.175781 16.15625 -33.359375 16.15625 -32.703125 C 16.15625 -32.398438 16.171875 -31.234375 16.203125 -29.203125 C 17.359375 -31.171875 18.207031 -32.492188 18.75 -33.171875 C 19 -33.484375 19.742188 -34.175781 20.984375 -35.25 C 21.941406 -35.945312 23.03125 -36.296875 24.25 -36.296875 C 25.738281 -36.296875 27.03125 -35.785156 28.125 -34.765625 C 29.226562 -33.753906 29.78125 -32.585938 29.78125 -31.265625 C 29.78125 -29.941406 29.363281 -28.75 28.53125 -27.6875 C 27.707031 -26.632812 26.601562 -26.109375 25.21875 -26.109375 C 24.007812 -26.109375 22.738281 -26.613281 21.40625 -27.625 C 20.613281 -28.25 19.976562 -28.5625 19.5 -28.5625 L 19.203125 -28.515625 C 18.617188 -28.316406 18.085938 -27.78125 17.609375 -26.90625 C 16.816406 -25.5 16.421875 -24.035156 16.421875 -22.515625 L 16.5 -21.375 C 16.613281 -19.28125 16.695312 -14.382812 16.75 -6.6875 C 16.832031 -5.976562 17.101562 -5.269531 17.5625 -4.5625 C 18.070312 -4.175781 18.585938 -3.894531 19.109375 -3.71875 C 19.628906 -3.550781 20.535156 -3.410156 21.828125 -3.296875 C 23.128906 -3.179688 23.921875 -3.003906 24.203125 -2.765625 C 24.484375 -2.523438 24.625 -2.140625 24.625 -1.609375 C 24.625 -1.296875 24.539062 -0.882812 24.375 -0.375 L 20.390625 -0.375 L 12.3125 -0.796875 C 10.28125 -0.796875 8.429688 -0.710938 6.765625 -0.546875 L 6.046875 -0.546875 C 5.847656 -0.546875 4.382812 -0.476562 1.65625 -0.34375 C 1.5625 -0.789062 1.515625 -1.128906 1.515625 -1.359375 C 1.515625 -1.578125 1.5625 -1.898438 1.65625 -2.328125 Z M 1.65625 -2.328125 "/></g></g></g><g fill="#ffffff" fill-opacity="1"><g transform="translate(245.797452, 312.800845)"><g><path d="M -0.46875 -34.609375 L 0.296875 -34.65625 L 0.9375 -34.65625 C 1.15625 -34.65625 2.128906 -34.566406 3.859375 -34.390625 C 5.597656 -34.222656 7.203125 -34.140625 8.671875 -34.140625 C 9.796875 -34.140625 11.375 -34.222656 13.40625 -34.390625 C 15.4375 -34.566406 16.679688 -34.65625 17.140625 -34.65625 C 17.503906 -34.65625 18.023438 -34.640625 18.703125 -34.609375 C 18.753906 -34.078125 18.78125 -33.640625 18.78125 -33.296875 C 18.78125 -33.015625 18.726562 -32.691406 18.625 -32.328125 C 18.195312 -32.179688 17.703125 -32.066406 17.140625 -31.984375 C 15.898438 -31.765625 15.039062 -31.515625 14.5625 -31.234375 C 14.414062 -31.140625 14.300781 -30.941406 14.21875 -30.640625 C 14.445312 -29.785156 14.6875 -29.035156 14.9375 -28.390625 L 19.078125 -18.90625 C 20.429688 -15.78125 21.617188 -13.34375 22.640625 -11.59375 C 23.203125 -10.320312 23.582031 -9.476562 23.78125 -9.0625 C 26.425781 -13.738281 28.425781 -18.179688 29.78125 -22.390625 L 27.890625 -26.40625 C 27.097656 -28.15625 26.28125 -29.75 25.4375 -31.1875 C 24.925781 -31.320312 24.375 -31.460938 23.78125 -31.609375 C 22.738281 -31.859375 21.78125 -32.125 20.90625 -32.40625 L 20.90625 -34.734375 C 22.988281 -34.710938 24.410156 -34.65625 25.171875 -34.5625 C 26.441406 -34.457031 28.332031 -34.40625 30.84375 -34.40625 C 32.082031 -34.40625 33.601562 -34.4375 35.40625 -34.5 C 37.21875 -34.570312 38.320312 -34.609375 38.71875 -34.609375 L 40.796875 -34.609375 L 40.65625 -32.203125 C 40.351562 -32.171875 39.648438 -32.097656 38.546875 -31.984375 C 37.441406 -31.867188 36.46875 -31.6875 35.625 -31.4375 C 37.039062 -27.9375 37.972656 -25.78125 38.421875 -24.96875 L 38.921875 -24.03125 L 43.453125 -14.125 L 45.015625 -10.75 L 46.671875 -14.390625 C 48.023438 -17.347656 48.828125 -19.148438 49.078125 -19.796875 C 49.898438 -21.910156 50.378906 -23.125 50.515625 -23.4375 C 51.847656 -26.226562 52.515625 -28.300781 52.515625 -29.65625 C 52.515625 -30.03125 52.21875 -30.410156 51.625 -30.796875 C 51.457031 -30.910156 50.410156 -31.265625 48.484375 -31.859375 C 47.128906 -32.023438 46.210938 -32.195312 45.734375 -32.375 L 45.953125 -34.5625 C 46.378906 -34.625 46.734375 -34.65625 47.015625 -34.65625 C 47.234375 -34.65625 48.503906 -34.5625 50.828125 -34.375 C 53.160156 -34.195312 54.523438 -34.109375 54.921875 -34.109375 C 55.992188 -34.109375 57.628906 -34.21875 59.828125 -34.4375 C 60.785156 -34.519531 61.578125 -34.5625 62.203125 -34.5625 L 62.203125 -33.34375 C 62.203125 -33.113281 62.1875 -32.675781 62.15625 -32.03125 C 59.394531 -31.207031 57.660156 -30.546875 56.953125 -30.046875 C 56.785156 -29.929688 56.601562 -29.660156 56.40625 -29.234375 L 49.96875 -14.6875 C 48.875 -12.375 47.015625 -7.972656 44.390625 -1.484375 C 44.015625 -0.609375 43.734375 0.0664062 43.546875 0.546875 L 40.359375 0.546875 L 33.125 -15.578125 L 32.375 -17.21875 C 32.144531 -17.726562 31.875 -18.25 31.5625 -18.78125 L 31.1875 -18.109375 L 26.109375 -7.609375 C 25.347656 -5.972656 24.632812 -4.546875 23.96875 -3.328125 C 23.300781 -2.117188 22.71875 -0.867188 22.21875 0.421875 L 20.734375 0.46875 L 18.453125 0.421875 L 11.84375 -13.625 L 4.703125 -29.03125 C 4.242188 -29.84375 3.816406 -30.40625 3.421875 -30.71875 C 2.742188 -31.226562 1.972656 -31.5625 1.109375 -31.71875 C 0.253906 -31.875 -0.28125 -32.050781 -0.5 -32.25 C -0.53125 -32.78125 -0.546875 -33.1875 -0.546875 -33.46875 C -0.546875 -33.863281 -0.519531 -34.242188 -0.46875 -34.609375 Z M -0.46875 -34.609375 "/></g></g></g><g fill="#ffffff" fill-opacity="1"><g transform="translate(311.52658, 312.800845)"><g><path d="M 7.28125 -50.734375 C 7.28125 -52.253906 7.769531 -53.5 8.75 -54.46875 C 9.738281 -55.445312 11.007812 -55.9375 12.5625 -55.9375 C 14.226562 -55.9375 15.609375 -55.421875 16.703125 -54.390625 C 17.804688 -53.359375 18.359375 -52.195312 18.359375 -50.90625 C 18.359375 -49.945312 18.140625 -48.988281 17.703125 -48.03125 C 17.265625 -47.070312 16.570312 -46.300781 15.625 -45.71875 C 14.6875 -45.132812 13.722656 -44.84375 12.734375 -44.84375 C 11.378906 -44.84375 10.128906 -45.421875 8.984375 -46.578125 C 7.847656 -47.742188 7.28125 -49.128906 7.28125 -50.734375 Z M 1.359375 -0.25 L 1.265625 -3 L 6.046875 -3.640625 C 6.753906 -3.835938 7.238281 -4.125 7.5 -4.5 C 7.769531 -4.882812 7.90625 -5.738281 7.90625 -7.0625 L 7.90625 -7.53125 C 7.90625 -7.875 7.925781 -8.488281 7.96875 -9.375 C 8.019531 -10.257812 8.046875 -11.039062 8.046875 -11.71875 C 8.046875 -12.257812 8 -13.289062 7.90625 -14.8125 L 7.953125 -16.921875 L 7.90625 -18.90625 L 8 -25.8125 C 8 -26.6875 7.914062 -27.585938 7.75 -28.515625 C 7.4375 -28.941406 6.867188 -29.304688 6.046875 -29.609375 C 5.234375 -29.921875 3.8125 -30.148438 1.78125 -30.296875 L 1.78125 -32.671875 C 4.6875 -32.835938 7.238281 -33.441406 9.4375 -34.484375 C 10.925781 -35.160156 12.546875 -36.359375 14.296875 -38.078125 L 17.140625 -38.078125 C 17.253906 -34.578125 17.3125 -30.035156 17.3125 -24.453125 L 17.015625 -7.1875 C 17.015625 -6.007812 17.066406 -4.941406 17.171875 -3.984375 C 18.046875 -3.671875 19.472656 -3.359375 21.453125 -3.046875 C 22.210938 -2.929688 22.816406 -2.789062 23.265625 -2.625 L 23.234375 -0.296875 C 22.472656 -0.265625 21.90625 -0.25 21.53125 -0.25 C 21.113281 -0.25 20.46875 -0.28125 19.59375 -0.34375 C 16.71875 -0.476562 12.867188 -0.546875 8.046875 -0.546875 C 6.660156 -0.546875 5.316406 -0.492188 4.015625 -0.390625 C 2.722656 -0.296875 1.835938 -0.25 1.359375 -0.25 Z M 1.359375 -0.25 "/></g></g></g><g clip-path="url(#5f8bb8f84c)"><path fill="#ffffff" d="M 252.269531 134.109375 C 252.269531 130.367188 252.269531 126.667969 252.269531 122.925781 C 252.269531 120.402344 252.480469 117.667969 251.722656 115.230469 C 247.519531 102.40625 229.269531 106.148438 228.765625 118.972656 C 228.765625 124.648438 228.765625 130.324219 228.765625 136 C 228.765625 136.503906 228.765625 136.96875 228.765625 137.472656 C 228.765625 137.558594 228.765625 137.601562 228.765625 137.683594 C 228.765625 137.765625 228.765625 137.808594 228.765625 137.894531 C 228.765625 138.816406 228.765625 139.742188 228.722656 140.625 C 228.722656 141.761719 228.722656 142.980469 228.808594 144.117188 C 229.394531 150.085938 234.523438 154.839844 240.539062 154.839844 C 247.222656 154.542969 252.015625 149.582031 252.308594 142.9375 C 252.351562 140.035156 252.269531 137.054688 252.269531 134.109375 Z M 224.6875 143.191406 C 224.558594 140.792969 224.6875 138.3125 224.6875 136 C 224.6875 131.292969 224.6875 126.542969 224.6875 121.832031 C 224.6875 120.824219 224.6875 119.8125 224.769531 118.847656 C 224.730469 115.988281 224.6875 113.128906 224.6875 110.3125 C 224.6875 108 224.730469 105.769531 223.84375 103.582031 C 221.828125 98.496094 216.445312 95.46875 211.0625 96.3125 C 205.261719 97.234375 201.394531 102.15625 201.140625 107.875 C 201.058594 109.808594 201.097656 111.78125 201.140625 113.71875 C 208.625 116.15625 214.59375 122.335938 212.199219 130.703125 C 210.390625 136.925781 206.144531 140.207031 200.972656 142.390625 C 201.058594 142.601562 201.097656 142.855469 201.140625 143.148438 C 201.351562 149.496094 206.355469 154.964844 212.914062 154.921875 C 219.472656 154.878906 224.351562 149.539062 224.6875 143.191406 Z M 256.261719 124.230469 C 256.261719 129.0625 256.261719 133.855469 256.261719 138.734375 C 256.261719 142.347656 256.429688 145.839844 255.003906 149.246094 C 252.519531 155.132812 246.804688 158.664062 240.453125 158.875 C 234.695312 158.875 229.355469 155.59375 226.621094 150.632812 C 225.484375 152.988281 223.679688 155.046875 220.859375 156.730469 C 210.476562 162.828125 198.070312 155.214844 197.1875 143.78125 C 196.515625 143.992188 195.800781 144.242188 195.128906 144.410156 C 185.457031 147.3125 178.644531 152.902344 173.683594 161.3125 C 192.941406 166.316406 206.984375 183.175781 208.457031 203.105469 C 208.625 205.671875 204.632812 205.628906 204.460938 203.105469 C 203.03125 184.019531 188.78125 168.335938 170.109375 164.59375 C 168.765625 164.296875 168.34375 162.699219 168.890625 161.648438 C 173.308594 153.113281 179.65625 146.132812 188.652344 142.476562 C 196.433594 139.238281 209.382812 137.894531 208.792969 126.457031 C 208.371094 117.753906 196.261719 116.074219 189.703125 116.828125 C 182.011719 117.710938 174.527344 120.824219 167.714844 124.355469 C 162.667969 126.917969 157.917969 129.988281 153.207031 133.015625 C 151.441406 134.109375 149.71875 135.289062 147.953125 136.421875 C 147.660156 136.925781 147.113281 137.261719 146.566406 137.347656 C 141.058594 141.132812 135.84375 145.417969 132.4375 151.054688 C 127.8125 158.664062 128.023438 167.492188 131.34375 175.523438 C 135.550781 185.785156 142.738281 195.496094 149.507812 204.15625 C 152.410156 207.898438 155.5625 211.472656 158.84375 214.878906 C 160.3125 216.4375 161.867188 217.90625 163.46875 219.417969 C 164.351562 220.261719 165.695312 221.101562 166.117188 222.238281 C 166.703125 224.003906 166.199219 226.777344 166.199219 228.542969 C 166.199219 230.476562 166.199219 232.414062 166.199219 234.304688 C 166.199219 236.867188 162.207031 236.867188 162.207031 234.304688 C 162.207031 231.488281 162.207031 228.671875 162.207031 225.851562 C 162.207031 225.179688 162.332031 224.253906 162.207031 223.539062 C 161.996094 222.320312 162.078125 223.496094 162.121094 223.539062 C 160.523438 221.730469 158.589844 220.21875 156.910156 218.496094 C 147.828125 209.289062 140.175781 198.648438 133.363281 187.675781 C 128.316406 179.558594 123.945312 170.4375 125.039062 160.640625 C 126.003906 152.019531 130.925781 145 137.398438 139.40625 C 139.460938 137.601562 141.644531 135.957031 143.914062 134.320312 C 141.8125 126.667969 139.628906 119.015625 137.484375 111.363281 C 131.933594 91.433594 127.140625 71.125 120.832031 51.488281 C 118.4375 44.046875 119.488281 36.015625 126.046875 30.972656 C 132.648438 25.839844 142.191406 27.269531 147.785156 33.285156 C 151.441406 37.195312 152.410156 42.449219 153.839844 47.453125 C 155.730469 54.097656 157.667969 60.695312 159.558594 67.339844 C 163.382812 80.585938 167.210938 93.871094 170.996094 107.117188 C 171.75 109.597656 167.839844 110.648438 167.125 108.167969 C 163.128906 94.375 159.179688 80.585938 155.183594 66.835938 C 153.292969 60.191406 151.359375 53.589844 149.46875 46.949219 C 147.785156 40.933594 146.1875 35.050781 139.835938 32.609375 C 129.242188 28.492188 121.171875 39.632812 124.28125 49.261719 C 124.828125 51.027344 125.375 52.707031 125.835938 54.472656 C 128.484375 63.851562 131.050781 73.1875 133.699219 82.5625 C 138.28125 98.957031 142.824219 115.355469 147.40625 131.753906 C 151.234375 129.191406 155.183594 126.75 159.136719 124.355469 C 164.980469 120.824219 171.121094 117.753906 177.59375 115.441406 C 183.734375 113.253906 190.757812 111.613281 197.355469 112.539062 C 197.273438 108.796875 197.1875 104.929688 198.660156 101.480469 C 201.097656 95.722656 206.902344 91.851562 213.207031 91.851562 C 222.835938 91.851562 228.34375 99.546875 228.933594 108.25 C 236.503906 99.714844 251.21875 101.988281 255.464844 113.003906 C 256.558594 116.746094 256.261719 120.527344 256.261719 124.230469 Z M 176.417969 90.339844 C 179.402344 79.324219 182.429688 68.308594 185.414062 57.25 C 187.011719 51.238281 188.695312 45.222656 190.292969 39.210938 C 192.523438 31.011719 202.613281 26.597656 209.59375 32.863281 C 216.53125 39.042969 212.324219 47.832031 210.265625 55.316406 C 207.867188 64.269531 205.429688 73.226562 203.03125 82.183594 C 202.359375 84.664062 206.230469 85.714844 206.902344 83.234375 C 209.296875 74.277344 211.734375 65.320312 214.132812 56.367188 C 215.984375 49.554688 219.386719 42.40625 216.320312 35.46875 C 211.527344 24.539062 196.601562 22.6875 189.242188 32.023438 C 186.046875 35.972656 185.414062 41.859375 184.113281 46.652344 C 181.800781 55.148438 179.488281 63.640625 177.175781 72.132812 C 175.621094 77.851562 174.0625 83.570312 172.507812 89.289062 C 171.835938 91.769531 175.746094 92.863281 176.417969 90.339844 Z M 254.707031 165.390625 C 255.464844 182.292969 249.578125 198.988281 238.394531 211.683594 C 237.972656 212.144531 236.417969 214.164062 236.164062 213.871094 C 236.164062 214.246094 236.207031 214.667969 236.207031 214.921875 C 236.207031 217.359375 236.207031 219.757812 236.207031 222.195312 C 236.207031 226.273438 236.207031 230.3125 236.207031 234.390625 C 236.207031 236.953125 232.210938 236.953125 232.210938 234.390625 C 232.210938 230.3125 232.210938 226.273438 232.210938 222.195312 C 232.210938 219.292969 231.203125 214.332031 232.800781 211.769531 C 234.609375 208.867188 237.679688 206.429688 239.738281 203.613281 C 242.554688 199.617188 244.867188 195.285156 246.675781 190.746094 C 249.832031 182.671875 251.132812 174.054688 250.796875 165.433594 C 250.585938 162.785156 254.621094 162.785156 254.707031 165.390625 " fill-opacity="1" fill-rule="nonzero"/></g><g fill="#ffffff" fill-opacity="1"><g transform="translate(75.364425, 347.850416)"><g><path d="M 0.4375 0.109375 L 0.4375 -0.078125 C 0.550781 -0.128906 0.734375 -0.175781 0.984375 -0.21875 C 1.242188 -0.257812 1.421875 -0.300781 1.515625 -0.34375 C 1.609375 -0.382812 1.6875 -0.441406 1.75 -0.515625 C 1.800781 -0.734375 1.828125 -1.125 1.828125 -1.6875 L 1.71875 -7.453125 L 1.734375 -8.40625 C 1.734375 -8.601562 1.695312 -8.738281 1.625 -8.8125 C 1.5625 -8.882812 1.378906 -8.953125 1.078125 -9.015625 C 0.773438 -9.078125 0.59375 -9.128906 0.53125 -9.171875 C 0.476562 -9.210938 0.453125 -9.253906 0.453125 -9.296875 C 0.453125 -9.316406 0.460938 -9.347656 0.484375 -9.390625 C 0.546875 -9.429688 0.613281 -9.453125 0.6875 -9.453125 C 0.757812 -9.453125 0.910156 -9.445312 1.140625 -9.4375 L 1.34375 -9.4375 C 1.40625 -9.4375 1.597656 -9.441406 1.921875 -9.453125 L 2.953125 -9.453125 L 5.078125 -9.484375 L 7.328125 -9.578125 L 7.53125 -9.578125 L 7.859375 -9.59375 C 7.941406 -9.59375 8.019531 -9.566406 8.09375 -9.515625 C 8.125 -9.429688 8.140625 -9.375 8.140625 -9.34375 L 8.140625 -9.046875 L 8.203125 -7.71875 C 8.203125 -7.664062 8.195312 -7.597656 8.1875 -7.515625 C 8.101562 -7.472656 8.03125 -7.453125 7.96875 -7.453125 C 7.925781 -7.453125 7.894531 -7.46875 7.875 -7.5 C 7.832031 -7.5625 7.804688 -7.664062 7.796875 -7.8125 C 7.773438 -8.03125 7.695312 -8.304688 7.5625 -8.640625 C 7.5 -8.796875 7.394531 -8.90625 7.25 -8.96875 C 6.945312 -9.082031 6.445312 -9.140625 5.75 -9.140625 C 5.414062 -9.140625 5.101562 -9.128906 4.8125 -9.109375 C 4.53125 -9.085938 4.359375 -9.078125 4.296875 -9.078125 L 3.71875 -9.09375 C 3.476562 -9.09375 3.285156 -9.054688 3.140625 -8.984375 C 3.035156 -8.941406 2.984375 -8.835938 2.984375 -8.671875 L 2.984375 -8.5625 C 2.992188 -8.300781 3 -8.019531 3 -7.71875 L 2.984375 -5.703125 C 2.984375 -5.503906 2.992188 -5.316406 3.015625 -5.140625 L 3.234375 -5.125 L 3.65625 -5.15625 L 5.0625 -5.15625 C 5.632812 -5.15625 6.03125 -5.191406 6.25 -5.265625 C 6.394531 -5.316406 6.503906 -5.398438 6.578125 -5.515625 C 6.609375 -5.546875 6.671875 -5.738281 6.765625 -6.09375 L 6.875 -6.71875 C 6.925781 -6.738281 6.96875 -6.75 7 -6.75 C 7.019531 -6.75 7.0625 -6.738281 7.125 -6.71875 C 7.144531 -6.601562 7.15625 -6.429688 7.15625 -6.203125 L 7.25 -3.46875 C 7.164062 -3.4375 7.097656 -3.421875 7.046875 -3.421875 L 6.96875 -3.4375 C 6.894531 -3.925781 6.769531 -4.3125 6.59375 -4.59375 C 6.539062 -4.695312 6.476562 -4.753906 6.40625 -4.765625 C 6.269531 -4.796875 5.679688 -4.8125 4.640625 -4.8125 C 4.316406 -4.8125 4.09375 -4.8125 3.96875 -4.8125 C 3.664062 -4.789062 3.488281 -4.78125 3.4375 -4.78125 L 3.359375 -4.78125 C 3.210938 -4.78125 3.101562 -4.757812 3.03125 -4.71875 C 3.007812 -4.664062 3 -4.625 3 -4.59375 L 3 -4.09375 C 3 -4.03125 3.003906 -3.78125 3.015625 -3.34375 L 3 -0.890625 C 3 -0.828125 3.019531 -0.742188 3.0625 -0.640625 C 3.164062 -0.554688 3.351562 -0.5 3.625 -0.46875 C 3.894531 -0.4375 4.15625 -0.375 4.40625 -0.28125 C 4.539062 -0.207031 4.609375 -0.132812 4.609375 -0.0625 C 4.609375 -0.0195312 4.597656 0.0078125 4.578125 0.03125 C 4.554688 0.0625 4.519531 0.0859375 4.46875 0.109375 C 4.0625 0.0234375 3.503906 -0.015625 2.796875 -0.015625 C 2.410156 -0.015625 2.003906 0.015625 1.578125 0.078125 C 1.285156 0.117188 0.953125 0.140625 0.578125 0.140625 Z M 0.4375 0.109375 "/></g></g></g><g fill="#ffffff" fill-opacity="1"><g transform="translate(89.9609, 347.850416)"><g><path d="M -0.078125 -0.234375 C -0.015625 -0.273438 0.046875 -0.296875 0.109375 -0.296875 L 0.28125 -0.296875 C 0.3125 -0.296875 0.367188 -0.296875 0.453125 -0.296875 C 0.828125 -0.335938 1.050781 -0.375 1.125 -0.40625 C 1.300781 -0.5 1.453125 -0.660156 1.578125 -0.890625 C 1.828125 -1.398438 2.113281 -2.113281 2.4375 -3.03125 C 2.59375 -3.476562 2.6875 -3.75 2.71875 -3.84375 C 2.84375 -4.132812 2.960938 -4.441406 3.078125 -4.765625 L 3.78125 -6.71875 C 3.882812 -7.019531 4.144531 -7.722656 4.5625 -8.828125 C 4.664062 -9.097656 4.789062 -9.46875 4.9375 -9.9375 L 5.15625 -9.953125 L 5.421875 -9.9375 C 5.628906 -9.519531 5.816406 -9.070312 5.984375 -8.59375 C 6.066406 -8.332031 6.210938 -7.945312 6.421875 -7.4375 L 7.546875 -4.390625 L 8.140625 -2.734375 C 8.453125 -1.796875 8.65625 -1.21875 8.75 -1 C 8.851562 -0.789062 8.945312 -0.648438 9.03125 -0.578125 C 9.0625 -0.566406 9.15625 -0.539062 9.3125 -0.5 C 9.476562 -0.457031 9.59375 -0.425781 9.65625 -0.40625 C 9.882812 -0.34375 10.039062 -0.289062 10.125 -0.25 C 10.144531 -0.1875 10.15625 -0.144531 10.15625 -0.125 C 10.15625 -0.09375 10.148438 -0.0507812 10.140625 0 C 9.972656 0 9.859375 0 9.796875 0 C 9.546875 0 9.101562 -0.00390625 8.46875 -0.015625 L 7.734375 -0.046875 L 6.828125 -0.03125 C 6.765625 -0.03125 6.703125 -0.03125 6.640625 -0.03125 C 6.585938 -0.0390625 6.535156 -0.046875 6.484375 -0.046875 L 6.328125 -0.046875 C 6.273438 -0.0546875 6.222656 -0.0703125 6.171875 -0.09375 C 6.171875 -0.164062 6.1875 -0.234375 6.21875 -0.296875 C 6.269531 -0.328125 6.320312 -0.34375 6.375 -0.34375 L 7.15625 -0.40625 C 7.351562 -0.414062 7.503906 -0.441406 7.609375 -0.484375 C 7.640625 -0.566406 7.65625 -0.632812 7.65625 -0.6875 C 7.65625 -0.769531 7.59375 -1 7.46875 -1.375 C 7.375 -1.613281 7.296875 -1.84375 7.234375 -2.0625 C 7.171875 -2.289062 6.90625 -3.023438 6.4375 -4.265625 C 6.238281 -4.296875 6.0625 -4.3125 5.90625 -4.3125 L 4.328125 -4.296875 L 3.859375 -4.3125 C 3.691406 -4.3125 3.503906 -4.300781 3.296875 -4.28125 C 3.234375 -4.125 3.191406 -4.015625 3.171875 -3.953125 L 2.53125 -1.921875 C 2.25 -1.140625 2.109375 -0.710938 2.109375 -0.640625 C 2.109375 -0.597656 2.128906 -0.523438 2.171875 -0.421875 C 2.273438 -0.390625 2.414062 -0.359375 2.59375 -0.328125 L 3.59375 -0.25 C 3.65625 -0.195312 3.6875 -0.15625 3.6875 -0.125 C 3.6875 -0.101562 3.675781 -0.0664062 3.65625 -0.015625 C 3.4375 -0.00390625 3.269531 0 3.15625 0 C 2.757812 0 2.296875 -0.015625 1.765625 -0.046875 C 1.523438 -0.0546875 1.351562 -0.0625 1.25 -0.0625 C 1.144531 -0.0625 0.96875 -0.0546875 0.71875 -0.046875 C 0.539062 -0.0351562 0.414062 -0.03125 0.34375 -0.03125 C 0.226562 -0.03125 0.078125 -0.0351562 -0.109375 -0.046875 L -0.109375 -0.09375 C -0.109375 -0.125 -0.0976562 -0.171875 -0.078125 -0.234375 Z M 3.453125 -4.6875 C 3.984375 -4.65625 4.585938 -4.640625 5.265625 -4.640625 C 5.648438 -4.640625 5.988281 -4.648438 6.28125 -4.671875 C 6.226562 -4.867188 6.171875 -5.050781 6.109375 -5.21875 C 5.785156 -6.070312 5.609375 -6.546875 5.578125 -6.640625 L 4.890625 -8.34375 L 4.828125 -8.484375 C 4.796875 -8.421875 4.6875 -8.164062 4.5 -7.71875 C 4.175781 -6.945312 3.945312 -6.347656 3.8125 -5.921875 C 3.75 -5.722656 3.679688 -5.53125 3.609375 -5.34375 C 3.546875 -5.15625 3.503906 -5.019531 3.484375 -4.9375 C 3.460938 -4.863281 3.4375 -4.789062 3.40625 -4.71875 Z M 3.453125 -4.6875 "/></g></g></g><g fill="#ffffff" fill-opacity="1"><g transform="translate(106.297391, 347.850416)"><g><path d="M 0.109375 -0.171875 C 0.253906 -0.273438 0.53125 -0.347656 0.9375 -0.390625 C 1.25 -0.410156 1.429688 -0.4375 1.484375 -0.46875 C 1.523438 -0.5 1.554688 -0.535156 1.578125 -0.578125 C 1.648438 -0.765625 1.703125 -1.265625 1.734375 -2.078125 C 1.785156 -3.128906 1.859375 -4.53125 1.953125 -6.28125 C 2.035156 -7.613281 2.078125 -8.441406 2.078125 -8.765625 L 2.078125 -8.96875 C 1.722656 -9.039062 1.160156 -9.117188 0.390625 -9.203125 C 0.335938 -9.273438 0.3125 -9.332031 0.3125 -9.375 C 0.3125 -9.394531 0.328125 -9.4375 0.359375 -9.5 C 0.441406 -9.53125 0.507812 -9.546875 0.5625 -9.546875 C 0.59375 -9.546875 0.675781 -9.535156 0.8125 -9.515625 C 1.050781 -9.484375 1.382812 -9.46875 1.8125 -9.46875 C 1.945312 -9.46875 2.1875 -9.476562 2.53125 -9.5 C 2.757812 -9.507812 2.890625 -9.515625 2.921875 -9.515625 C 3.003906 -9.515625 3.097656 -9.503906 3.203125 -9.484375 C 3.253906 -9.429688 3.289062 -9.382812 3.3125 -9.34375 L 3.625 -8.640625 L 5.71875 -4 L 6.578125 -2.0625 C 7.265625 -3.414062 7.800781 -4.625 8.1875 -5.6875 C 8.207031 -5.757812 8.238281 -5.828125 8.28125 -5.890625 C 8.320312 -5.972656 8.359375 -6.066406 8.390625 -6.171875 C 8.429688 -6.273438 8.59375 -6.671875 8.875 -7.359375 C 8.988281 -7.640625 9.082031 -7.878906 9.15625 -8.078125 C 9.4375 -8.867188 9.601562 -9.320312 9.65625 -9.4375 C 9.75 -9.46875 9.828125 -9.484375 9.890625 -9.484375 C 9.972656 -9.484375 10.078125 -9.476562 10.203125 -9.46875 C 10.472656 -9.457031 10.921875 -9.453125 11.546875 -9.453125 C 11.929688 -9.453125 12.25 -9.453125 12.5 -9.453125 C 12.507812 -9.398438 12.515625 -9.363281 12.515625 -9.34375 C 12.515625 -9.3125 12.503906 -9.265625 12.484375 -9.203125 C 12.328125 -9.117188 12.140625 -9.070312 11.921875 -9.0625 C 11.484375 -9.03125 11.203125 -8.992188 11.078125 -8.953125 C 10.960938 -8.910156 10.890625 -8.851562 10.859375 -8.78125 C 10.828125 -8.71875 10.796875 -8.492188 10.765625 -8.109375 L 10.78125 -7.765625 L 10.765625 -7.40625 C 10.765625 -6.664062 10.785156 -5.421875 10.828125 -3.671875 L 10.828125 -1.28125 C 10.828125 -0.914062 10.84375 -0.703125 10.875 -0.640625 C 10.914062 -0.578125 11.015625 -0.515625 11.171875 -0.453125 C 11.441406 -0.359375 11.878906 -0.265625 12.484375 -0.171875 C 12.515625 -0.148438 12.53125 -0.117188 12.53125 -0.078125 C 12.53125 -0.0351562 12.53125 0.0078125 12.53125 0.0625 L 12.1875 0.0625 C 11.894531 0.0625 11.578125 0.0507812 11.234375 0.03125 C 10.898438 0.0195312 10.71875 0.015625 10.6875 0.015625 C 9.675781 0.015625 9.003906 0.0234375 8.671875 0.046875 C 8.472656 0.0546875 8.347656 0.0625 8.296875 0.0625 C 8.253906 0.0625 8.210938 0.0507812 8.171875 0.03125 L 8.171875 -0.0625 C 8.171875 -0.101562 8.179688 -0.148438 8.203125 -0.203125 C 8.359375 -0.265625 8.582031 -0.3125 8.875 -0.34375 C 9.175781 -0.425781 9.398438 -0.515625 9.546875 -0.609375 C 9.585938 -0.796875 9.609375 -1.175781 9.609375 -1.75 L 9.59375 -3.25 C 9.59375 -3.414062 9.597656 -3.71875 9.609375 -4.15625 C 9.628906 -4.601562 9.640625 -5.328125 9.640625 -6.328125 C 9.640625 -7.128906 9.625 -7.734375 9.59375 -8.140625 C 9.5 -7.960938 9.332031 -7.585938 9.09375 -7.015625 L 8.984375 -6.734375 L 8.96875 -6.6875 L 7.875 -4.09375 L 7.46875 -3.09375 L 6.96875 -1.875 C 6.738281 -1.320312 6.546875 -0.832031 6.390625 -0.40625 C 6.328125 -0.207031 6.269531 -0.0507812 6.21875 0.0625 L 6.046875 0.0625 C 5.492188 -1.570312 4.828125 -3.242188 4.046875 -4.953125 C 3.273438 -6.671875 2.738281 -7.800781 2.4375 -8.34375 C 2.394531 -8.132812 2.347656 -7.519531 2.296875 -6.5 C 2.234375 -5.25 2.203125 -3.878906 2.203125 -2.390625 C 2.203125 -1.921875 2.234375 -1.390625 2.296875 -0.796875 C 2.316406 -0.628906 2.390625 -0.503906 2.515625 -0.421875 C 2.640625 -0.335938 2.957031 -0.289062 3.46875 -0.28125 C 3.664062 -0.28125 3.851562 -0.269531 4.03125 -0.25 C 4.070312 -0.175781 4.09375 -0.117188 4.09375 -0.078125 C 4.09375 -0.0546875 4.078125 -0.015625 4.046875 0.046875 L 1.75 -0.03125 C 1.582031 -0.03125 1.320312 -0.0195312 0.96875 0 C 0.769531 0.0078125 0.484375 0.0195312 0.109375 0.03125 Z M 0.109375 -0.171875 "/></g></g></g><g fill="#ffffff" fill-opacity="1"><g transform="translate(125.003267, 347.850416)"><g><path d="M 0.3125 -0.234375 C 0.425781 -0.273438 0.539062 -0.300781 0.65625 -0.3125 C 1.40625 -0.363281 1.832031 -0.453125 1.9375 -0.578125 C 2.050781 -0.710938 2.109375 -1.347656 2.109375 -2.484375 L 2.109375 -4.078125 L 2.078125 -4.984375 L 2.09375 -5.5 L 2.078125 -6.078125 L 2.078125 -6.765625 L 2.0625 -7.0625 L 2.078125 -7.453125 C 2.085938 -7.546875 2.09375 -7.648438 2.09375 -7.765625 C 2.09375 -8.078125 2.078125 -8.40625 2.046875 -8.75 C 2.023438 -8.820312 2 -8.890625 1.96875 -8.953125 C 1.78125 -9.046875 1.484375 -9.109375 1.078125 -9.140625 C 0.671875 -9.171875 0.441406 -9.207031 0.390625 -9.25 C 0.347656 -9.28125 0.320312 -9.351562 0.3125 -9.46875 L 0.9375 -9.46875 L 2.90625 -9.4375 C 3.40625 -9.4375 4.078125 -9.445312 4.921875 -9.46875 C 4.921875 -9.394531 4.914062 -9.320312 4.90625 -9.25 C 4.800781 -9.226562 4.632812 -9.203125 4.40625 -9.171875 C 3.9375 -9.117188 3.648438 -9.066406 3.546875 -9.015625 C 3.484375 -8.992188 3.4375 -8.953125 3.40625 -8.890625 C 3.351562 -8.796875 3.320312 -8.628906 3.3125 -8.390625 L 3.28125 -7.4375 L 3.3125 -4.140625 L 3.3125 -2.84375 C 3.300781 -2.425781 3.296875 -2.144531 3.296875 -2 C 3.296875 -1.445312 3.304688 -1.09375 3.328125 -0.9375 C 3.359375 -0.789062 3.40625 -0.679688 3.46875 -0.609375 C 3.539062 -0.546875 3.65625 -0.492188 3.8125 -0.453125 C 4.039062 -0.398438 4.21875 -0.367188 4.34375 -0.359375 C 4.613281 -0.347656 4.785156 -0.3125 4.859375 -0.25 C 4.878906 -0.175781 4.890625 -0.117188 4.890625 -0.078125 L 4.890625 -0.015625 C 4.441406 -0.00390625 4.109375 0 3.890625 0 C 3.773438 0 3.554688 -0.00390625 3.234375 -0.015625 L 2.21875 0 L 0.46875 -0.015625 L 0.328125 -0.015625 Z M 0.3125 -0.234375 "/></g></g></g><g fill="#ffffff" fill-opacity="1"><g transform="translate(136.438094, 347.850416)"><g><path d="M 0.078125 0.046875 C 0.0859375 -0.0234375 0.109375 -0.09375 0.140625 -0.15625 C 0.523438 -0.257812 0.898438 -0.328125 1.265625 -0.359375 C 1.503906 -0.378906 1.660156 -0.4375 1.734375 -0.53125 C 1.785156 -0.59375 1.816406 -0.828125 1.828125 -1.234375 L 1.875 -3.1875 L 1.859375 -4.515625 L 1.875 -6.25 L 1.875 -6.71875 C 1.875 -7.757812 1.867188 -8.40625 1.859375 -8.65625 C 1.859375 -8.707031 1.835938 -8.78125 1.796875 -8.875 C 1.671875 -8.925781 1.5625 -8.960938 1.46875 -8.984375 C 1.382812 -9.003906 1 -9.078125 0.3125 -9.203125 C 0.3125 -9.253906 0.3125 -9.289062 0.3125 -9.3125 C 0.3125 -9.34375 0.3125 -9.382812 0.3125 -9.4375 C 0.40625 -9.4375 0.5625 -9.429688 0.78125 -9.421875 L 1.90625 -9.390625 L 2.5625 -9.375 L 2.75 -9.375 C 2.769531 -9.375 2.84375 -9.367188 2.96875 -9.359375 C 3.257812 -9.359375 3.425781 -9.363281 3.46875 -9.375 L 4.0625 -9.421875 C 4.457031 -9.421875 4.738281 -9.410156 4.90625 -9.390625 C 4.894531 -9.304688 4.878906 -9.210938 4.859375 -9.109375 C 4.796875 -9.097656 4.535156 -9.082031 4.078125 -9.0625 C 3.617188 -9.039062 3.359375 -9.015625 3.296875 -8.984375 C 3.179688 -8.910156 3.125 -8.710938 3.125 -8.390625 C 3.125 -8.304688 3.117188 -8.144531 3.109375 -7.90625 L 3.109375 -5.625 L 3.125 -3.171875 L 3.109375 -1.078125 L 3.109375 -0.625 C 3.109375 -0.476562 3.132812 -0.382812 3.1875 -0.34375 C 3.3125 -0.34375 3.675781 -0.335938 4.28125 -0.328125 L 4.78125 -0.328125 L 6.0625 -0.375 C 6.394531 -0.382812 6.632812 -0.414062 6.78125 -0.46875 C 6.925781 -0.53125 7.164062 -0.703125 7.5 -0.984375 C 7.695312 -1.160156 7.851562 -1.34375 7.96875 -1.53125 C 8 -1.5625 8.039062 -1.617188 8.09375 -1.703125 C 8.1875 -1.828125 8.3125 -2.082031 8.46875 -2.46875 L 8.71875 -2.46875 C 8.6875 -2.289062 8.65625 -2.125 8.625 -1.96875 C 8.476562 -1.269531 8.378906 -0.691406 8.328125 -0.234375 C 8.316406 -0.128906 8.304688 -0.0351562 8.296875 0.046875 L 5.53125 -0.03125 C 3.144531 -0.03125 1.726562 -0.0078125 1.28125 0.03125 C 1.144531 0.0390625 1.003906 0.046875 0.859375 0.046875 Z M 0.078125 0.046875 "/></g></g></g><g fill="#ffffff" fill-opacity="1"><g transform="translate(151.19006, 347.850416)"><g><path d="M -0.140625 -9.546875 L 0.203125 -9.546875 C 0.335938 -9.546875 0.617188 -9.539062 1.046875 -9.53125 C 1.722656 -9.5 2.28125 -9.484375 2.71875 -9.484375 L 3.59375 -9.5 C 3.71875 -9.5 3.835938 -9.488281 3.953125 -9.46875 C 3.984375 -9.425781 4 -9.382812 4 -9.34375 L 4 -9.265625 L 3.8125 -9.171875 L 3.734375 -9.171875 L 3.3125 -9.15625 L 3.109375 -9.171875 C 2.941406 -9.171875 2.804688 -9.132812 2.703125 -9.0625 C 2.617188 -9.007812 2.578125 -8.953125 2.578125 -8.890625 C 2.578125 -8.828125 2.613281 -8.742188 2.6875 -8.640625 C 2.707031 -8.609375 2.742188 -8.550781 2.796875 -8.46875 C 2.898438 -8.300781 3.03125 -8.101562 3.1875 -7.875 C 3.425781 -7.550781 3.675781 -7.171875 3.9375 -6.734375 C 4.039062 -6.546875 4.148438 -6.375 4.265625 -6.21875 L 5.390625 -4.515625 C 5.460938 -4.609375 5.5625 -4.742188 5.6875 -4.921875 L 6.75 -6.453125 L 7.984375 -8.296875 C 8.097656 -8.472656 8.160156 -8.597656 8.171875 -8.671875 C 8.179688 -8.710938 8.1875 -8.753906 8.1875 -8.796875 C 8.1875 -8.898438 8.140625 -8.984375 8.046875 -9.046875 C 7.898438 -9.148438 7.570312 -9.226562 7.0625 -9.28125 C 7.03125 -9.289062 6.984375 -9.296875 6.921875 -9.296875 C 6.890625 -9.359375 6.875 -9.410156 6.875 -9.453125 C 6.875 -9.484375 6.875 -9.515625 6.875 -9.546875 L 7.265625 -9.5625 L 8.65625 -9.515625 L 9.765625 -9.546875 C 9.796875 -9.546875 9.898438 -9.539062 10.078125 -9.53125 L 10.0625 -9.28125 C 10.03125 -9.269531 9.972656 -9.257812 9.890625 -9.25 L 9.71875 -9.234375 C 9.6875 -9.222656 9.640625 -9.21875 9.578125 -9.21875 C 9.472656 -9.175781 9.390625 -9.132812 9.328125 -9.09375 C 8.609375 -8.320312 7.992188 -7.59375 7.484375 -6.90625 C 6.972656 -6.226562 6.539062 -5.613281 6.1875 -5.0625 C 6.070312 -4.875 5.984375 -4.738281 5.921875 -4.65625 C 5.785156 -4.488281 5.707031 -4.363281 5.6875 -4.28125 C 5.632812 -4.09375 5.609375 -3.800781 5.609375 -3.40625 C 5.609375 -1.875 5.632812 -0.96875 5.6875 -0.6875 C 5.71875 -0.550781 5.757812 -0.46875 5.8125 -0.4375 C 5.9375 -0.375 6.445312 -0.296875 7.34375 -0.203125 L 7.34375 -0.125 C 7.34375 -0.0625 7.328125 0.0078125 7.296875 0.09375 L 5.390625 0.015625 L 4.125 0.078125 L 3.09375 0.078125 C 2.988281 0.078125 2.878906 0.078125 2.765625 0.078125 C 2.742188 0.0234375 2.734375 -0.015625 2.734375 -0.046875 C 2.734375 -0.0664062 2.738281 -0.0976562 2.75 -0.140625 C 2.789062 -0.171875 2.828125 -0.191406 2.859375 -0.203125 L 3.8125 -0.34375 C 4.144531 -0.457031 4.332031 -0.535156 4.375 -0.578125 C 4.425781 -0.628906 4.460938 -0.71875 4.484375 -0.84375 C 4.484375 -0.9375 4.484375 -1.625 4.484375 -2.90625 C 4.484375 -3.382812 4.46875 -3.675781 4.4375 -3.78125 C 4.40625 -3.882812 4.300781 -4.070312 4.125 -4.34375 L 3.15625 -5.8125 L 1.5 -8.21875 C 1.21875 -8.644531 0.96875 -8.925781 0.75 -9.0625 C 0.65625 -9.125 0.421875 -9.175781 0.046875 -9.21875 C 0.015625 -9.21875 -0.0390625 -9.222656 -0.125 -9.234375 Z M -0.140625 -9.546875 "/></g></g></g><g fill="#ffffff" fill-opacity="1"><g transform="translate(167.208165, 347.850416)"><g/></g></g><g fill="#ffffff" fill-opacity="1"><g transform="translate(177.065865, 347.850416)"><g><path d="M 5.890625 -9.140625 C 5.929688 -8.816406 5.953125 -8.628906 5.953125 -8.578125 L 5.921875 -7.921875 C 5.910156 -7.640625 5.894531 -7.457031 5.875 -7.375 C 5.832031 -7.351562 5.796875 -7.34375 5.765625 -7.34375 L 5.703125 -7.359375 C 5.546875 -8.054688 5.273438 -8.5625 4.890625 -8.875 C 4.515625 -9.1875 4.054688 -9.34375 3.515625 -9.34375 C 2.953125 -9.34375 2.488281 -9.1875 2.125 -8.875 C 1.769531 -8.5625 1.59375 -8.191406 1.59375 -7.765625 C 1.59375 -7.453125 1.71875 -7.160156 1.96875 -6.890625 C 2.21875 -6.617188 2.863281 -6.21875 3.90625 -5.6875 C 4.695312 -5.28125 5.257812 -4.945312 5.59375 -4.6875 C 5.9375 -4.425781 6.191406 -4.125 6.359375 -3.78125 C 6.535156 -3.445312 6.625 -3.066406 6.625 -2.640625 C 6.625 -2.117188 6.488281 -1.625 6.21875 -1.15625 C 5.945312 -0.6875 5.578125 -0.332031 5.109375 -0.09375 C 4.648438 0.132812 4.035156 0.25 3.265625 0.25 C 2.597656 0.25 1.957031 0.140625 1.34375 -0.078125 C 0.988281 -0.203125 0.769531 -0.300781 0.6875 -0.375 C 0.613281 -0.457031 0.578125 -0.546875 0.578125 -0.640625 C 0.578125 -0.691406 0.578125 -0.757812 0.578125 -0.84375 C 0.648438 -1.425781 0.691406 -1.90625 0.703125 -2.28125 C 0.710938 -2.507812 0.726562 -2.644531 0.75 -2.6875 C 0.769531 -2.71875 0.804688 -2.734375 0.859375 -2.734375 C 0.898438 -2.734375 0.929688 -2.71875 0.953125 -2.6875 C 0.984375 -2.65625 1.003906 -2.597656 1.015625 -2.515625 C 1.078125 -1.898438 1.359375 -1.351562 1.859375 -0.875 C 2.367188 -0.394531 2.941406 -0.15625 3.578125 -0.15625 C 3.960938 -0.15625 4.320312 -0.238281 4.65625 -0.40625 C 4.988281 -0.570312 5.242188 -0.804688 5.421875 -1.109375 C 5.609375 -1.421875 5.703125 -1.722656 5.703125 -2.015625 C 5.703125 -2.410156 5.5625 -2.773438 5.28125 -3.109375 C 5 -3.441406 4.429688 -3.828125 3.578125 -4.265625 C 2.734375 -4.710938 2.179688 -5.035156 1.921875 -5.234375 C 1.503906 -5.566406 1.195312 -5.921875 1 -6.296875 C 0.84375 -6.578125 0.765625 -6.910156 0.765625 -7.296875 C 0.765625 -7.972656 1.035156 -8.550781 1.578125 -9.03125 C 2.117188 -9.507812 2.847656 -9.75 3.765625 -9.75 C 4.265625 -9.75 4.695312 -9.691406 5.0625 -9.578125 C 5.332031 -9.492188 5.609375 -9.347656 5.890625 -9.140625 Z M 5.890625 -9.140625 "/></g></g></g><g fill="#ffffff" fill-opacity="1"><g transform="translate(190.396194, 347.850416)"><g><path d="M 0.703125 -4.734375 C 0.703125 -5.234375 0.757812 -5.679688 0.875 -6.078125 C 1 -6.472656 1.203125 -6.898438 1.484375 -7.359375 C 1.773438 -7.816406 2.125 -8.195312 2.53125 -8.5 C 2.9375 -8.8125 3.492188 -9.085938 4.203125 -9.328125 C 4.710938 -9.492188 5.351562 -9.578125 6.125 -9.578125 C 6.632812 -9.578125 7.140625 -9.503906 7.640625 -9.359375 C 8.140625 -9.222656 8.585938 -9.03125 8.984375 -8.78125 C 9.390625 -8.539062 9.796875 -8.160156 10.203125 -7.640625 C 10.484375 -7.285156 10.695312 -6.90625 10.84375 -6.5 C 11.03125 -5.957031 11.125 -5.398438 11.125 -4.828125 C 11.125 -4.179688 11.0625 -3.640625 10.9375 -3.203125 C 10.8125 -2.773438 10.601562 -2.351562 10.3125 -1.9375 C 10.070312 -1.601562 9.671875 -1.226562 9.109375 -0.8125 C 8.734375 -0.519531 8.265625 -0.285156 7.703125 -0.109375 C 7.148438 0.0546875 6.550781 0.140625 5.90625 0.140625 C 5.25 0.140625 4.660156 0.0664062 4.140625 -0.078125 C 3.628906 -0.234375 3.203125 -0.421875 2.859375 -0.640625 C 2.515625 -0.859375 2.160156 -1.179688 1.796875 -1.609375 C 1.441406 -2.046875 1.171875 -2.519531 0.984375 -3.03125 C 0.796875 -3.550781 0.703125 -4.117188 0.703125 -4.734375 Z M 5.84375 -0.125 C 6.25 -0.125 6.675781 -0.179688 7.125 -0.296875 C 7.570312 -0.410156 7.96875 -0.601562 8.3125 -0.875 C 8.664062 -1.144531 8.9375 -1.453125 9.125 -1.796875 C 9.320312 -2.140625 9.476562 -2.578125 9.59375 -3.109375 C 9.71875 -3.648438 9.78125 -4.191406 9.78125 -4.734375 C 9.78125 -5.398438 9.679688 -6.066406 9.484375 -6.734375 C 9.328125 -7.222656 9.078125 -7.664062 8.734375 -8.0625 C 8.390625 -8.457031 7.972656 -8.757812 7.484375 -8.96875 C 6.992188 -9.1875 6.472656 -9.296875 5.921875 -9.296875 C 5.472656 -9.296875 5.03125 -9.222656 4.59375 -9.078125 C 4.164062 -8.929688 3.8125 -8.738281 3.53125 -8.5 C 3.257812 -8.269531 3.003906 -7.941406 2.765625 -7.515625 C 2.535156 -7.097656 2.359375 -6.632812 2.234375 -6.125 C 2.109375 -5.625 2.046875 -5.175781 2.046875 -4.78125 C 2.046875 -4.375 2.109375 -3.910156 2.234375 -3.390625 C 2.359375 -2.867188 2.523438 -2.414062 2.734375 -2.03125 C 2.953125 -1.65625 3.21875 -1.320312 3.53125 -1.03125 C 3.84375 -0.738281 4.191406 -0.515625 4.578125 -0.359375 C 4.972656 -0.203125 5.394531 -0.125 5.84375 -0.125 Z M 5.84375 -0.125 "/></g></g></g><g fill="#ffffff" fill-opacity="1"><g transform="translate(208.309813, 347.850416)"><g><path d="M 0.4375 0.109375 L 0.4375 -0.078125 C 0.550781 -0.128906 0.734375 -0.175781 0.984375 -0.21875 C 1.242188 -0.257812 1.421875 -0.300781 1.515625 -0.34375 C 1.609375 -0.382812 1.6875 -0.441406 1.75 -0.515625 C 1.800781 -0.734375 1.828125 -1.125 1.828125 -1.6875 L 1.71875 -7.453125 L 1.734375 -8.40625 C 1.734375 -8.601562 1.695312 -8.738281 1.625 -8.8125 C 1.5625 -8.882812 1.378906 -8.953125 1.078125 -9.015625 C 0.773438 -9.078125 0.59375 -9.128906 0.53125 -9.171875 C 0.476562 -9.210938 0.453125 -9.253906 0.453125 -9.296875 C 0.453125 -9.316406 0.460938 -9.347656 0.484375 -9.390625 C 0.546875 -9.429688 0.613281 -9.453125 0.6875 -9.453125 C 0.757812 -9.453125 0.910156 -9.445312 1.140625 -9.4375 L 1.34375 -9.4375 C 1.40625 -9.4375 1.597656 -9.441406 1.921875 -9.453125 L 2.953125 -9.453125 L 5.078125 -9.484375 L 7.328125 -9.578125 L 7.53125 -9.578125 L 7.859375 -9.59375 C 7.941406 -9.59375 8.019531 -9.566406 8.09375 -9.515625 C 8.125 -9.429688 8.140625 -9.375 8.140625 -9.34375 L 8.140625 -9.046875 L 8.203125 -7.71875 C 8.203125 -7.664062 8.195312 -7.597656 8.1875 -7.515625 C 8.101562 -7.472656 8.03125 -7.453125 7.96875 -7.453125 C 7.925781 -7.453125 7.894531 -7.46875 7.875 -7.5 C 7.832031 -7.5625 7.804688 -7.664062 7.796875 -7.8125 C 7.773438 -8.03125 7.695312 -8.304688 7.5625 -8.640625 C 7.5 -8.796875 7.394531 -8.90625 7.25 -8.96875 C 6.945312 -9.082031 6.445312 -9.140625 5.75 -9.140625 C 5.414062 -9.140625 5.101562 -9.128906 4.8125 -9.109375 C 4.53125 -9.085938 4.359375 -9.078125 4.296875 -9.078125 L 3.71875 -9.09375 C 3.476562 -9.09375 3.285156 -9.054688 3.140625 -8.984375 C 3.035156 -8.941406 2.984375 -8.835938 2.984375 -8.671875 L 2.984375 -8.5625 C 2.992188 -8.300781 3 -8.019531 3 -7.71875 L 2.984375 -5.703125 C 2.984375 -5.503906 2.992188 -5.316406 3.015625 -5.140625 L 3.234375 -5.125 L 3.65625 -5.15625 L 5.0625 -5.15625 C 5.632812 -5.15625 6.03125 -5.191406 6.25 -5.265625 C 6.394531 -5.316406 6.503906 -5.398438 6.578125 -5.515625 C 6.609375 -5.546875 6.671875 -5.738281 6.765625 -6.09375 L 6.875 -6.71875 C 6.925781 -6.738281 6.96875 -6.75 7 -6.75 C 7.019531 -6.75 7.0625 -6.738281 7.125 -6.71875 C 7.144531 -6.601562 7.15625 -6.429688 7.15625 -6.203125 L 7.25 -3.46875 C 7.164062 -3.4375 7.097656 -3.421875 7.046875 -3.421875 L 6.96875 -3.4375 C 6.894531 -3.925781 6.769531 -4.3125 6.59375 -4.59375 C 6.539062 -4.695312 6.476562 -4.753906 6.40625 -4.765625 C 6.269531 -4.796875 5.679688 -4.8125 4.640625 -4.8125 C 4.316406 -4.8125 4.09375 -4.8125 3.96875 -4.8125 C 3.664062 -4.789062 3.488281 -4.78125 3.4375 -4.78125 L 3.359375 -4.78125 C 3.210938 -4.78125 3.101562 -4.757812 3.03125 -4.71875 C 3.007812 -4.664062 3 -4.625 3 -4.59375 L 3 -4.09375 C 3 -4.03125 3.003906 -3.78125 3.015625 -3.34375 L 3 -0.890625 C 3 -0.828125 3.019531 -0.742188 3.0625 -0.640625 C 3.164062 -0.554688 3.351562 -0.5 3.625 -0.46875 C 3.894531 -0.4375 4.15625 -0.375 4.40625 -0.28125 C 4.539062 -0.207031 4.609375 -0.132812 4.609375 -0.0625 C 4.609375 -0.0195312 4.597656 0.0078125 4.578125 0.03125 C 4.554688 0.0625 4.519531 0.0859375 4.46875 0.109375 C 4.0625 0.0234375 3.503906 -0.015625 2.796875 -0.015625 C 2.410156 -0.015625 2.003906 0.015625 1.578125 0.078125 C 1.285156 0.117188 0.953125 0.140625 0.578125 0.140625 Z M 0.4375 0.109375 "/></g></g></g><g fill="#ffffff" fill-opacity="1"><g transform="translate(222.906293, 347.850416)"><g><path d="M 0.265625 -8.375 L 0.578125 -9.484375 C 0.585938 -9.640625 0.609375 -9.738281 0.640625 -9.78125 C 0.679688 -9.820312 0.722656 -9.84375 0.765625 -9.84375 C 0.859375 -9.84375 0.960938 -9.734375 1.078125 -9.515625 C 1.160156 -9.367188 1.226562 -9.269531 1.28125 -9.21875 C 1.332031 -9.175781 1.410156 -9.148438 1.515625 -9.140625 L 1.59375 -9.15625 L 1.90625 -9.125 L 3.65625 -9.09375 L 5.71875 -9.109375 L 6.328125 -9.109375 L 7.484375 -9.125 C 7.535156 -9.125 7.597656 -9.117188 7.671875 -9.109375 C 8.003906 -9.078125 8.210938 -9.0625 8.296875 -9.0625 C 8.367188 -9.0625 8.425781 -9.085938 8.46875 -9.140625 C 8.476562 -9.160156 8.5625 -9.328125 8.71875 -9.640625 C 8.78125 -9.785156 8.859375 -9.859375 8.953125 -9.859375 C 8.992188 -9.859375 9.039062 -9.847656 9.09375 -9.828125 C 9.125 -9.734375 9.140625 -9.644531 9.140625 -9.5625 L 9.125 -9.265625 L 9.140625 -8.640625 C 9.140625 -8.484375 9.125 -7.988281 9.09375 -7.15625 C 9.09375 -7.101562 9.082031 -7.054688 9.0625 -7.015625 C 9.007812 -6.972656 8.960938 -6.953125 8.921875 -6.953125 C 8.890625 -6.953125 8.859375 -6.96875 8.828125 -7 C 8.796875 -7.039062 8.757812 -7.160156 8.71875 -7.359375 C 8.613281 -7.796875 8.488281 -8.113281 8.34375 -8.3125 C 8.238281 -8.4375 8.09375 -8.523438 7.90625 -8.578125 C 7.726562 -8.628906 7.285156 -8.65625 6.578125 -8.65625 C 6.015625 -8.65625 5.597656 -8.644531 5.328125 -8.625 C 5.316406 -8.425781 5.3125 -8.25 5.3125 -8.09375 L 5.375 -3.484375 C 5.375 -3.304688 5.363281 -2.960938 5.34375 -2.453125 L 5.359375 -1.46875 L 5.34375 -0.921875 C 5.34375 -0.742188 5.375 -0.617188 5.4375 -0.546875 C 5.5 -0.472656 5.660156 -0.398438 5.921875 -0.328125 C 6.367188 -0.210938 6.671875 -0.144531 6.828125 -0.125 C 6.921875 -0.113281 7 -0.09375 7.0625 -0.0625 L 7.0625 0.15625 L 6.015625 0.125 C 5.429688 0.125 4.992188 0.113281 4.703125 0.09375 L 3.625 0.140625 L 2.828125 0.1875 C 2.609375 0.1875 2.472656 0.179688 2.421875 0.171875 L 2.3125 0.125 C 2.320312 0.0078125 2.34375 -0.0625 2.375 -0.09375 C 2.414062 -0.125 2.507812 -0.148438 2.65625 -0.171875 C 2.863281 -0.203125 3.109375 -0.253906 3.390625 -0.328125 C 3.671875 -0.398438 3.859375 -0.476562 3.953125 -0.5625 C 3.992188 -0.601562 4.023438 -0.675781 4.046875 -0.78125 C 4.097656 -1 4.125 -1.425781 4.125 -2.0625 L 4.125 -3.328125 L 4.09375 -6.078125 L 4.0625 -6.671875 L 4.046875 -8.640625 C 3.734375 -8.679688 3.335938 -8.703125 2.859375 -8.703125 C 2.148438 -8.703125 1.71875 -8.65625 1.5625 -8.5625 C 1.320312 -8.425781 0.960938 -8.019531 0.484375 -7.34375 C 0.328125 -7.09375 0.1875 -6.96875 0.0625 -6.96875 L 0 -6.984375 C -0.0195312 -7.015625 -0.03125 -7.039062 -0.03125 -7.0625 C -0.03125 -7.125 0.0078125 -7.300781 0.09375 -7.59375 C 0.1875 -7.976562 0.242188 -8.238281 0.265625 -8.375 Z M 0.265625 -8.375 "/></g></g></g><g fill="#ffffff" fill-opacity="1"><g transform="translate(238.295025, 347.850416)"><g><path d="M -0.140625 -9.1875 L -0.140625 -9.296875 C -0.078125 -9.390625 0.113281 -9.4375 0.4375 -9.4375 L 1.125 -9.4375 L 1.53125 -9.421875 L 1.703125 -9.4375 C 2.347656 -9.4375 2.738281 -9.425781 2.875 -9.40625 C 2.875 -9.34375 2.875 -9.296875 2.875 -9.265625 C 2.875 -9.222656 2.867188 -9.160156 2.859375 -9.078125 L 2.140625 -9.046875 C 2.109375 -9.035156 2.0625 -9.023438 2 -9.015625 C 1.988281 -8.960938 1.984375 -8.921875 1.984375 -8.890625 C 1.984375 -8.867188 1.992188 -8.820312 2.015625 -8.75 C 2.054688 -8.664062 2.097656 -8.578125 2.140625 -8.484375 L 2.59375 -7.1875 L 3.71875 -4.40625 C 3.84375 -4.0625 3.925781 -3.835938 3.96875 -3.734375 C 4.101562 -3.429688 4.28125 -3 4.5 -2.4375 C 4.570312 -2.238281 4.75 -1.820312 5.03125 -1.1875 C 5.039062 -1.144531 5.070312 -1.082031 5.125 -1 C 5.34375 -1.351562 5.664062 -1.976562 6.09375 -2.875 C 6.425781 -3.570312 6.640625 -4.050781 6.734375 -4.3125 L 6.671875 -4.453125 L 5.390625 -7.34375 C 5.222656 -7.707031 5.09375 -7.992188 5 -8.203125 C 4.8125 -8.648438 4.671875 -8.90625 4.578125 -8.96875 C 4.484375 -9.03125 4.222656 -9.078125 3.796875 -9.109375 L 3.640625 -9.140625 C 3.597656 -9.179688 3.578125 -9.234375 3.578125 -9.296875 C 3.585938 -9.335938 3.609375 -9.375 3.640625 -9.40625 C 3.796875 -9.40625 3.910156 -9.40625 3.984375 -9.40625 L 4.4375 -9.390625 L 4.6875 -9.40625 L 5.84375 -9.40625 L 6.53125 -9.453125 C 6.570312 -9.453125 6.640625 -9.445312 6.734375 -9.4375 L 6.859375 -9.453125 C 6.921875 -9.453125 6.96875 -9.429688 7 -9.390625 C 7.039062 -9.359375 7.0625 -9.328125 7.0625 -9.296875 C 7.0625 -9.253906 7.050781 -9.210938 7.03125 -9.171875 C 6.945312 -9.140625 6.804688 -9.113281 6.609375 -9.09375 C 6.316406 -9.0625 6.144531 -9.03125 6.09375 -9 C 6.050781 -8.96875 6.03125 -8.925781 6.03125 -8.875 C 6.03125 -8.78125 6.21875 -8.285156 6.59375 -7.390625 L 7.359375 -5.6875 C 7.585938 -6.132812 7.898438 -6.847656 8.296875 -7.828125 C 8.472656 -8.234375 8.5625 -8.535156 8.5625 -8.734375 C 8.5625 -8.828125 8.519531 -8.921875 8.4375 -9.015625 C 8.363281 -9.066406 8.21875 -9.101562 8 -9.125 L 7.84375 -9.15625 L 7.71875 -9.203125 L 7.703125 -9.265625 C 7.703125 -9.296875 7.710938 -9.335938 7.734375 -9.390625 C 7.785156 -9.429688 7.832031 -9.453125 7.875 -9.453125 C 7.945312 -9.460938 8.289062 -9.453125 8.90625 -9.421875 L 10.234375 -9.421875 C 10.273438 -9.421875 10.335938 -9.410156 10.421875 -9.390625 C 10.453125 -9.347656 10.46875 -9.3125 10.46875 -9.28125 C 10.46875 -9.21875 10.445312 -9.171875 10.40625 -9.140625 C 10.363281 -9.109375 10.269531 -9.078125 10.125 -9.046875 C 9.75 -8.984375 9.46875 -8.882812 9.28125 -8.75 C 9.15625 -8.65625 9.046875 -8.523438 8.953125 -8.359375 L 8.40625 -7.15625 C 8.28125 -6.789062 8.175781 -6.515625 8.09375 -6.328125 C 8.050781 -6.210938 7.984375 -6.0625 7.890625 -5.875 L 7.59375 -5.171875 C 7.644531 -5.046875 7.738281 -4.84375 7.875 -4.5625 L 8.625 -2.78125 C 8.664062 -2.707031 8.769531 -2.488281 8.9375 -2.125 C 9.101562 -1.757812 9.242188 -1.425781 9.359375 -1.125 L 9.46875 -1.484375 L 9.484375 -1.515625 L 9.9375 -2.703125 C 10.09375 -3.054688 10.253906 -3.4375 10.421875 -3.84375 L 10.984375 -5.28125 L 11.84375 -7.71875 C 11.9375 -8 12.007812 -8.269531 12.0625 -8.53125 L 12.078125 -8.65625 C 12.097656 -8.707031 12.109375 -8.742188 12.109375 -8.765625 C 12.109375 -8.835938 12.070312 -8.898438 12 -8.953125 C 11.925781 -9.015625 11.679688 -9.09375 11.265625 -9.1875 C 11.222656 -9.207031 11.1875 -9.234375 11.15625 -9.265625 C 11.132812 -9.316406 11.125 -9.363281 11.125 -9.40625 L 11.140625 -9.453125 C 11.347656 -9.460938 11.476562 -9.46875 11.53125 -9.46875 L 12.09375 -9.453125 L 13.515625 -9.453125 L 13.53125 -9.375 C 13.53125 -9.332031 13.523438 -9.28125 13.515625 -9.21875 C 13.160156 -9.082031 12.9375 -8.984375 12.84375 -8.921875 C 12.757812 -8.859375 12.691406 -8.789062 12.640625 -8.71875 C 12.597656 -8.65625 12.515625 -8.46875 12.390625 -8.15625 C 12.367188 -8.132812 12.210938 -7.691406 11.921875 -6.828125 C 11.859375 -6.703125 11.789062 -6.53125 11.71875 -6.3125 C 11.695312 -6.257812 11.65625 -6.15625 11.59375 -6 L 11.46875 -5.703125 L 11.390625 -5.484375 C 11.066406 -4.585938 10.707031 -3.648438 10.3125 -2.671875 L 9.515625 -0.4375 L 9.203125 0.40625 C 9.117188 0.414062 9.054688 0.421875 9.015625 0.421875 C 8.984375 0.421875 8.9375 0.414062 8.875 0.40625 C 8.8125 0.226562 8.671875 -0.113281 8.453125 -0.625 C 7.890625 -1.925781 7.382812 -3.003906 6.9375 -3.859375 L 6.84375 -3.703125 C 6.59375 -3.222656 6.289062 -2.585938 5.9375 -1.796875 L 5.359375 -0.625 C 5.117188 -0.125 4.925781 0.21875 4.78125 0.40625 L 4.453125 0.421875 L 3.265625 -2.515625 L 2.265625 -4.84375 L 1.390625 -7.046875 C 1.328125 -7.191406 1.273438 -7.328125 1.234375 -7.453125 C 1.203125 -7.546875 1.171875 -7.644531 1.140625 -7.75 C 1.085938 -7.90625 0.945312 -8.253906 0.71875 -8.796875 C 0.632812 -8.941406 0.492188 -9.03125 0.296875 -9.0625 C 0.0976562 -9.101562 -0.046875 -9.144531 -0.140625 -9.1875 Z M -0.140625 -9.1875 "/></g></g></g><g fill="#ffffff" fill-opacity="1"><g transform="translate(257.785754, 347.850416)"><g><path d="M -0.078125 -0.234375 C -0.015625 -0.273438 0.046875 -0.296875 0.109375 -0.296875 L 0.28125 -0.296875 C 0.3125 -0.296875 0.367188 -0.296875 0.453125 -0.296875 C 0.828125 -0.335938 1.050781 -0.375 1.125 -0.40625 C 1.300781 -0.5 1.453125 -0.660156 1.578125 -0.890625 C 1.828125 -1.398438 2.113281 -2.113281 2.4375 -3.03125 C 2.59375 -3.476562 2.6875 -3.75 2.71875 -3.84375 C 2.84375 -4.132812 2.960938 -4.441406 3.078125 -4.765625 L 3.78125 -6.71875 C 3.882812 -7.019531 4.144531 -7.722656 4.5625 -8.828125 C 4.664062 -9.097656 4.789062 -9.46875 4.9375 -9.9375 L 5.15625 -9.953125 L 5.421875 -9.9375 C 5.628906 -9.519531 5.816406 -9.070312 5.984375 -8.59375 C 6.066406 -8.332031 6.210938 -7.945312 6.421875 -7.4375 L 7.546875 -4.390625 L 8.140625 -2.734375 C 8.453125 -1.796875 8.65625 -1.21875 8.75 -1 C 8.851562 -0.789062 8.945312 -0.648438 9.03125 -0.578125 C 9.0625 -0.566406 9.15625 -0.539062 9.3125 -0.5 C 9.476562 -0.457031 9.59375 -0.425781 9.65625 -0.40625 C 9.882812 -0.34375 10.039062 -0.289062 10.125 -0.25 C 10.144531 -0.1875 10.15625 -0.144531 10.15625 -0.125 C 10.15625 -0.09375 10.148438 -0.0507812 10.140625 0 C 9.972656 0 9.859375 0 9.796875 0 C 9.546875 0 9.101562 -0.00390625 8.46875 -0.015625 L 7.734375 -0.046875 L 6.828125 -0.03125 C 6.765625 -0.03125 6.703125 -0.03125 6.640625 -0.03125 C 6.585938 -0.0390625 6.535156 -0.046875 6.484375 -0.046875 L 6.328125 -0.046875 C 6.273438 -0.0546875 6.222656 -0.0703125 6.171875 -0.09375 C 6.171875 -0.164062 6.1875 -0.234375 6.21875 -0.296875 C 6.269531 -0.328125 6.320312 -0.34375 6.375 -0.34375 L 7.15625 -0.40625 C 7.351562 -0.414062 7.503906 -0.441406 7.609375 -0.484375 C 7.640625 -0.566406 7.65625 -0.632812 7.65625 -0.6875 C 7.65625 -0.769531 7.59375 -1 7.46875 -1.375 C 7.375 -1.613281 7.296875 -1.84375 7.234375 -2.0625 C 7.171875 -2.289062 6.90625 -3.023438 6.4375 -4.265625 C 6.238281 -4.296875 6.0625 -4.3125 5.90625 -4.3125 L 4.328125 -4.296875 L 3.859375 -4.3125 C 3.691406 -4.3125 3.503906 -4.300781 3.296875 -4.28125 C 3.234375 -4.125 3.191406 -4.015625 3.171875 -3.953125 L 2.53125 -1.921875 C 2.25 -1.140625 2.109375 -0.710938 2.109375 -0.640625 C 2.109375 -0.597656 2.128906 -0.523438 2.171875 -0.421875 C 2.273438 -0.390625 2.414062 -0.359375 2.59375 -0.328125 L 3.59375 -0.25 C 3.65625 -0.195312 3.6875 -0.15625 3.6875 -0.125 C 3.6875 -0.101562 3.675781 -0.0664062 3.65625 -0.015625 C 3.4375 -0.00390625 3.269531 0 3.15625 0 C 2.757812 0 2.296875 -0.015625 1.765625 -0.046875 C 1.523438 -0.0546875 1.351562 -0.0625 1.25 -0.0625 C 1.144531 -0.0625 0.96875 -0.0546875 0.71875 -0.046875 C 0.539062 -0.0351562 0.414062 -0.03125 0.34375 -0.03125 C 0.226562 -0.03125 0.078125 -0.0351562 -0.109375 -0.046875 L -0.109375 -0.09375 C -0.109375 -0.125 -0.0976562 -0.171875 -0.078125 -0.234375 Z M 3.453125 -4.6875 C 3.984375 -4.65625 4.585938 -4.640625 5.265625 -4.640625 C 5.648438 -4.640625 5.988281 -4.648438 6.28125 -4.671875 C 6.226562 -4.867188 6.171875 -5.050781 6.109375 -5.21875 C 5.785156 -6.070312 5.609375 -6.546875 5.578125 -6.640625 L 4.890625 -8.34375 L 4.828125 -8.484375 C 4.796875 -8.421875 4.6875 -8.164062 4.5 -7.71875 C 4.175781 -6.945312 3.945312 -6.347656 3.8125 -5.921875 C 3.75 -5.722656 3.679688 -5.53125 3.609375 -5.34375 C 3.546875 -5.15625 3.503906 -5.019531 3.484375 -4.9375 C 3.460938 -4.863281 3.4375 -4.789062 3.40625 -4.71875 Z M 3.453125 -4.6875 "/></g></g></g><g fill="#ffffff" fill-opacity="1"><g transform="translate(274.12224, 347.850416)"><g><path d="M 0.421875 -0.21875 C 1.140625 -0.300781 1.546875 -0.363281 1.640625 -0.40625 C 1.703125 -0.425781 1.757812 -0.5 1.8125 -0.625 L 1.8125 -0.703125 C 1.8125 -0.828125 1.832031 -1.273438 1.875 -2.046875 C 1.882812 -2.265625 1.890625 -2.476562 1.890625 -2.6875 L 1.859375 -3.5625 L 1.875 -4.5625 L 1.875 -7.75 C 1.882812 -8.3125 1.84375 -8.65625 1.75 -8.78125 C 1.65625 -8.90625 1.414062 -8.992188 1.03125 -9.046875 C 0.65625 -9.097656 0.445312 -9.132812 0.40625 -9.15625 C 0.375 -9.1875 0.359375 -9.226562 0.359375 -9.28125 C 0.359375 -9.3125 0.363281 -9.359375 0.375 -9.421875 C 0.425781 -9.460938 0.539062 -9.484375 0.71875 -9.484375 C 0.738281 -9.484375 0.804688 -9.488281 0.921875 -9.5 C 1.035156 -9.519531 1.140625 -9.53125 1.234375 -9.53125 L 1.84375 -9.53125 L 3.796875 -9.546875 C 4.890625 -9.546875 5.65625 -9.460938 6.09375 -9.296875 C 6.539062 -9.140625 6.894531 -8.863281 7.15625 -8.46875 C 7.425781 -8.082031 7.5625 -7.648438 7.5625 -7.171875 C 7.5625 -6.265625 7.082031 -5.570312 6.125 -5.09375 C 5.957031 -5.007812 5.828125 -4.9375 5.734375 -4.875 C 5.910156 -4.519531 6.144531 -4.09375 6.4375 -3.59375 L 7.390625 -1.984375 C 7.765625 -1.390625 8.019531 -1.015625 8.15625 -0.859375 C 8.300781 -0.710938 8.476562 -0.585938 8.6875 -0.484375 C 8.894531 -0.390625 9.238281 -0.296875 9.71875 -0.203125 C 9.726562 -0.160156 9.734375 -0.125 9.734375 -0.09375 C 9.734375 -0.0625 9.726562 -0.0234375 9.71875 0.015625 C 9.039062 0.0234375 8.25 0.03125 7.34375 0.03125 C 7.28125 0.03125 7.191406 0.0234375 7.078125 0.015625 C 6.722656 -0.648438 6.3125 -1.382812 5.84375 -2.1875 L 4.734375 -4.1875 C 4.585938 -4.394531 4.46875 -4.523438 4.375 -4.578125 C 4.28125 -4.628906 4.15625 -4.65625 4 -4.65625 L 3.15625 -4.65625 C 3.144531 -4.5 3.140625 -4.175781 3.140625 -3.6875 L 3.140625 -1.15625 C 3.128906 -1.0625 3.144531 -0.929688 3.1875 -0.765625 C 3.226562 -0.671875 3.296875 -0.59375 3.390625 -0.53125 C 3.492188 -0.476562 3.773438 -0.394531 4.234375 -0.28125 L 4.53125 -0.203125 C 4.570312 -0.160156 4.59375 -0.09375 4.59375 0 C 4.457031 0.0195312 4.363281 0.03125 4.3125 0.03125 C 3.863281 0.03125 3.550781 0.0234375 3.375 0.015625 C 3.28125 0.00390625 3.203125 0 3.140625 0 L 2.140625 0.015625 L 1.140625 0.015625 C 1.097656 0.015625 0.875 0.0195312 0.46875 0.03125 L 0.328125 0 L 0.3125 -0.0625 C 0.3125 -0.113281 0.347656 -0.164062 0.421875 -0.21875 Z M 3.171875 -5.0625 C 3.304688 -5.0625 3.40625 -5.0625 3.46875 -5.0625 C 3.820312 -5.0625 4.234375 -5.101562 4.703125 -5.1875 C 5.023438 -5.25 5.285156 -5.351562 5.484375 -5.5 C 5.691406 -5.644531 5.863281 -5.859375 6 -6.140625 C 6.132812 -6.429688 6.203125 -6.726562 6.203125 -7.03125 C 6.203125 -7.375 6.09375 -7.734375 5.875 -8.109375 C 5.71875 -8.390625 5.441406 -8.625 5.046875 -8.8125 C 4.660156 -9.007812 4.195312 -9.109375 3.65625 -9.109375 C 3.519531 -9.109375 3.347656 -9.101562 3.140625 -9.09375 C 3.117188 -8.832031 3.109375 -8.632812 3.109375 -8.5 L 3.15625 -7.109375 L 3.140625 -6.546875 C 3.140625 -6.160156 3.148438 -5.664062 3.171875 -5.0625 Z M 3.171875 -5.0625 "/></g></g></g><g fill="#ffffff" fill-opacity="1"><g transform="translate(289.666474, 347.850416)"><g><path d="M 0.375 -0.125 C 0.414062 -0.164062 0.457031 -0.191406 0.5 -0.203125 C 0.582031 -0.222656 0.722656 -0.242188 0.921875 -0.265625 C 1.398438 -0.285156 1.695312 -0.328125 1.8125 -0.390625 C 1.882812 -0.492188 1.921875 -0.632812 1.921875 -0.8125 L 1.90625 -1.328125 L 1.921875 -3.203125 L 1.90625 -4.09375 L 1.90625 -5.953125 L 1.875 -8.0625 C 1.863281 -8.570312 1.832031 -8.859375 1.78125 -8.921875 C 1.6875 -9.015625 1.421875 -9.066406 0.984375 -9.078125 C 0.796875 -9.085938 0.628906 -9.101562 0.484375 -9.125 C 0.421875 -9.15625 0.390625 -9.203125 0.390625 -9.265625 C 0.390625 -9.296875 0.398438 -9.34375 0.421875 -9.40625 C 0.472656 -9.425781 0.515625 -9.4375 0.546875 -9.4375 C 0.617188 -9.4375 0.703125 -9.4375 0.796875 -9.4375 C 1.085938 -9.40625 1.390625 -9.390625 1.703125 -9.390625 L 2.25 -9.40625 L 3.5625 -9.375 C 4.207031 -9.375 4.710938 -9.378906 5.078125 -9.390625 C 5.441406 -9.410156 5.691406 -9.421875 5.828125 -9.421875 C 5.941406 -9.421875 6.222656 -9.410156 6.671875 -9.390625 L 7.71875 -9.40625 L 7.84375 -9.375 L 8.453125 -9.40625 L 8.53125 -9.359375 C 8.5625 -9.316406 8.582031 -9.273438 8.59375 -9.234375 C 8.59375 -9.171875 8.578125 -9.066406 8.546875 -8.921875 C 8.523438 -8.773438 8.515625 -8.6875 8.515625 -8.65625 C 8.515625 -8.132812 8.535156 -7.695312 8.578125 -7.34375 C 8.566406 -7.3125 8.550781 -7.296875 8.53125 -7.296875 C 8.46875 -7.296875 8.414062 -7.300781 8.375 -7.3125 C 8.320312 -7.40625 8.25 -7.566406 8.15625 -7.796875 C 8.0625 -8.035156 7.925781 -8.3125 7.75 -8.625 C 7.625 -8.832031 7.523438 -8.957031 7.453125 -9 C 7.390625 -9.039062 7.25 -9.0625 7.03125 -9.0625 C 6.988281 -9.0625 6.765625 -9.066406 6.359375 -9.078125 C 6.242188 -9.078125 6.132812 -9.078125 6.03125 -9.078125 L 3.921875 -9.03125 L 3.734375 -9.03125 C 3.460938 -9.03125 3.300781 -9 3.25 -8.9375 C 3.164062 -8.8125 3.125 -8.460938 3.125 -7.890625 C 3.125 -7.828125 3.132812 -7.234375 3.15625 -6.109375 L 3.15625 -5.078125 C 3.21875 -5.066406 3.28125 -5.0625 3.34375 -5.0625 L 3.46875 -5.0625 C 3.550781 -5.0625 3.675781 -5.054688 3.84375 -5.046875 C 4.09375 -5.035156 4.265625 -5.03125 4.359375 -5.03125 C 4.410156 -5.03125 4.460938 -5.035156 4.515625 -5.046875 C 5.046875 -5.066406 5.734375 -5.078125 6.578125 -5.078125 C 6.835938 -5.117188 6.988281 -5.171875 7.03125 -5.234375 C 7.101562 -5.316406 7.15625 -5.546875 7.1875 -5.921875 C 7.226562 -6.296875 7.3125 -6.507812 7.4375 -6.5625 C 7.507812 -6.5625 7.570312 -6.550781 7.625 -6.53125 C 7.632812 -6.488281 7.640625 -6.453125 7.640625 -6.421875 C 7.640625 -6.378906 7.632812 -6.320312 7.625 -6.25 C 7.601562 -6.0625 7.59375 -5.488281 7.59375 -4.53125 C 7.59375 -4.269531 7.601562 -3.976562 7.625 -3.65625 C 7.65625 -3.34375 7.671875 -3.175781 7.671875 -3.15625 C 7.671875 -3.113281 7.660156 -3.054688 7.640625 -2.984375 C 7.609375 -2.960938 7.578125 -2.953125 7.546875 -2.953125 L 7.5 -2.953125 C 7.414062 -3.085938 7.335938 -3.300781 7.265625 -3.59375 C 7.140625 -4.09375 7.003906 -4.40625 6.859375 -4.53125 C 6.722656 -4.65625 6.492188 -4.71875 6.171875 -4.71875 C 6.109375 -4.71875 5.984375 -4.710938 5.796875 -4.703125 C 5.617188 -4.703125 5.347656 -4.703125 4.984375 -4.703125 L 4.5 -4.703125 C 3.8125 -4.703125 3.363281 -4.6875 3.15625 -4.65625 L 3.15625 -1.34375 C 3.15625 -0.84375 3.1875 -0.550781 3.25 -0.46875 C 3.332031 -0.363281 3.515625 -0.3125 3.796875 -0.3125 L 4.25 -0.3125 C 4.289062 -0.3125 4.445312 -0.304688 4.71875 -0.296875 C 4.988281 -0.296875 5.320312 -0.296875 5.71875 -0.296875 C 6.664062 -0.296875 7.296875 -0.335938 7.609375 -0.421875 C 7.929688 -0.503906 8.191406 -0.644531 8.390625 -0.84375 C 8.597656 -1.050781 8.859375 -1.5 9.171875 -2.1875 C 9.265625 -2.394531 9.359375 -2.5 9.453125 -2.5 C 9.492188 -2.5 9.539062 -2.476562 9.59375 -2.4375 C 9.457031 -1.945312 9.378906 -1.625 9.359375 -1.46875 C 9.304688 -1.125 9.273438 -0.773438 9.265625 -0.421875 C 9.265625 -0.253906 9.222656 -0.113281 9.140625 0 L 8.984375 0 L 6.890625 0.015625 L 5.96875 0 L 3.734375 0.03125 L 2.84375 0.03125 C 2.726562 0.03125 2.617188 0.0351562 2.515625 0.046875 C 1.628906 0.0859375 0.976562 0.109375 0.5625 0.109375 C 0.476562 0.109375 0.421875 0.09375 0.390625 0.0625 C 0.367188 0.0390625 0.359375 0.00390625 0.359375 -0.046875 Z M 0.375 -0.125 "/></g></g></g></svg>